<svg width="107" height="108" viewBox="0 0 107 108" fill="none" xmlns="http://www.w3.org/2000/svg">
<path d="M53.1647 107.886C-17.7275 106.614 -17.7163 1.26083 53.167 0C124.057 1.27117 124.046 106.625 53.1647 107.886ZM53.1647 3.26918C-13.431 4.46362 -13.4205 103.432 53.1668 104.616C119.76 103.422 119.75 4.45387 53.1647 3.26918Z" fill="#3F3D56"/>
<path d="M64.6865 26.2904C51.3873 26.6726 25.5263 21.9191 25.5131 42.4224C25.8945 55.7206 21.141 81.5817 41.6444 81.5948C54.9426 81.2135 80.8036 85.9669 80.8167 65.4636C80.4354 52.1654 85.1888 26.3044 64.6865 26.2904Z" fill="#3F3D56"/>
<path d="M68.1429 42.4215C63.6678 42.4777 63.6828 35.4473 68.1581 35.5232C72.6331 35.4678 72.6177 42.4968 68.1429 42.4215Z" fill="none"/>
<path d="M53.165 44.7251C65.1248 44.5493 65.1249 63.3379 53.1641 63.1608C41.2051 63.3345 41.205 44.5496 53.165 44.7251ZM53.165 40.1167C35.2276 39.8547 35.2245 68.0334 53.1662 67.7692C71.1055 68.0313 71.103 39.8526 53.165 40.1167V40.1167Z" fill="white"/>
</svg>
