
<svg width="1130.08" height="813.14"  fill="none" xmlns="http://www.w3.org/2000/svg" >
<g clip-path="url(#clip0)">
<path opacity="0.1" d="M584.48 132.75C513.11 144.81 441.84 139.64 373.28 132.12C304.72 124.6 236.33 114.78 164.93 117.74C119 119.64 67.85 128.74 35.78 155.19C4.90998 180.63 0.0999873 214.96 0.0399873 245.95C-0.0400127 269.26 1.97999 293.38 18.5 311.95C29.98 324.83 47.65 334.06 60.96 345.95C107.27 387.25 93.19 452.28 62.8 507.57C48.54 533.51 31.1 559.02 21.39 585.57C11.68 612.12 10.39 640.57 27.77 662.22C44.95 683.57 78.26 695.71 113.04 701.98C183.58 714.72 262.17 706.81 338.21 696.09C506.49 672.36 673.04 635.24 839.23 598.21C900.72 584.5 962.48 570.73 1021.72 550.97C1054.62 539.97 1088.12 526.28 1109.37 504.97C1136.37 477.97 1137.05 441.04 1111.03 418.97C1067.37 381.97 968.55 390.18 934.78 347.88C916.2 324.59 924.29 292.96 939.08 265.02C970.79 205.1 1032.08 145.9 1024.14 86.16C1018.66 45.16 976.85 11.23 920.81 2.38999C862.07 -6.87001 786.63 10.69 752.81 51.95C718.04 94.46 647.5 122.11 584.48 132.75Z" fill="#6C63FF"/>
<path d="M502.77 105.03H87.07V300.82H502.77V105.03Z" fill="#565661"/>
<path d="M494.65 119.43H96.65V286.42H494.65V119.43Z" fill="#DFE6F5"/>
<path d="M124.67 200.04C118.946 200.735 113.349 202.23 108.04 204.48L119.04 194.02C119.835 193.169 120.794 192.489 121.86 192.02C123.64 191.34 125.69 191.86 127.51 191.26C130.44 190.26 131.9 186.74 134.82 185.73C136.82 185.05 139 185.73 141.1 185.58C145.29 185.3 148.61 181.88 150.74 178.25C152.87 174.62 154.3 170.55 157.03 167.35C160.9 162.8 166.9 160.6 171.22 156.46C173.14 154.62 174.69 152.46 176.53 150.53C180.16 146.891 184.758 144.371 189.779 143.27C194.799 142.169 200.031 142.534 204.85 144.32C206.154 144.979 207.581 145.357 209.04 145.43C210.19 145.292 211.301 144.928 212.31 144.36L225.85 137.87C233.432 140.302 240.583 143.912 247.04 148.57C248.043 149.454 249.266 150.051 250.58 150.3C254.2 150.59 255.74 145.94 258.05 143.14C261.21 139.3 267.11 138.7 271.76 140.47C276.41 142.24 280.04 145.9 283.34 149.57C284.85 151.26 286.44 153.05 288.6 153.72C290.391 154.142 292.261 154.097 294.03 153.59C304.481 151.213 313.668 145.018 319.79 136.22C320.72 134.86 321.87 133.28 323.52 133.3C324.317 133.376 325.081 133.655 325.74 134.11C331.587 137.504 337.026 141.558 341.95 146.19C345.69 149.71 349.19 153.6 353.68 156.1C358.17 158.6 364.03 159.42 368.32 156.61C367.62 159.4 370.32 162.08 373.13 162.67C375.94 163.26 378.85 162.45 381.71 162.08C385.66 161.59 389.669 161.92 393.486 163.051C397.302 164.181 400.844 166.087 403.89 168.65C410.3 169.358 416.414 171.727 421.628 175.523C426.842 179.318 430.976 184.408 433.62 190.29C435.74 195.18 438.55 201.73 443.82 200.92C445.59 200.65 447.29 199.47 449.03 199.92C450.201 200.347 451.237 201.079 452.03 202.04C456.55 206.44 462.72 208.57 468.41 211.27C474.1 213.97 479.86 217.83 481.86 223.8C476.93 224.49 472.06 222.5 467.15 221.67C462.24 220.84 456.25 221.72 453.9 226.12C452.96 227.9 452.65 230.17 451 231.32C449.871 231.953 448.581 232.242 447.29 232.15C436.083 232.293 425.01 229.69 415.04 224.57C408.28 234.402 398.27 241.537 386.77 244.72C386.45 240.38 381.93 237.22 377.57 237.16C373.21 237.1 369.15 239.42 365.79 242.16C362.518 244.865 359.675 248.051 357.36 251.61C355.43 254.61 353.83 257.84 351.21 260.21C348.59 262.58 344.49 263.82 341.48 261.96C339.81 260.96 338.74 259.11 337.1 258.01C333.37 255.52 327.67 257.34 324.39 254.27C322.02 252.05 321.98 248.13 319.71 245.81C316.84 242.88 311.71 243.86 308.5 246.39C305.29 248.92 303.15 252.6 300.2 255.44C292.55 262.81 280.84 263.44 270.2 263.64C270.2 261.27 271.68 259.21 272.72 257.09C275.67 251.09 274.86 243.84 272.15 237.75C269.44 231.66 265.04 226.57 260.73 221.57C255.87 226.75 258.1 235.78 253.73 241.41C251.96 243.7 249.28 245.15 247.43 247.41C245.12 250.19 243.32 254.55 239.72 254.28C237.96 254.15 236.54 252.83 235.35 251.53C230.76 246.53 226.53 240.21 219.86 238.91C217.25 238.4 214.55 238.75 211.86 238.52C207.552 238.006 203.56 236.001 200.575 232.852C197.591 229.703 195.802 225.609 195.52 221.28C189.88 222.81 183.84 224.12 178.2 225.65C176.63 226.08 174.92 226.51 173.4 225.92C171.4 225.13 170.4 222.87 168.75 221.48C166.32 219.48 162.75 219.56 159.69 220.22C156.63 220.88 153.52 222 150.38 221.65C149.731 218.788 149.569 215.836 149.9 212.92L138.7 211.92C137.224 211.875 135.765 211.591 134.38 211.08C133.334 210.595 132.369 209.95 131.52 209.17C128.761 206.515 126.448 203.432 124.67 200.04V200.04Z" fill="#6C63FF"/>
<path d="M152.26 192.91C153.64 191.48 154.82 189.82 156.47 188.72C157.93 187.855 159.497 187.183 161.13 186.72C173.13 182.49 182.5 173.25 192.08 164.89C200.52 157.52 209.39 150.66 218.25 143.81L221.62 146.27L213.53 149.57C212.75 149.89 211.85 150.37 211.81 151.21C211.846 151.745 212.073 152.249 212.45 152.63C214.53 155.31 216.87 158.17 220.18 158.92C221.76 159.28 223.67 159.23 224.65 160.52C225.041 161.159 225.312 161.864 225.45 162.6C226.73 166.96 230.68 169.95 234.56 172.32C242.224 176.984 250.533 180.495 259.22 182.74C252.653 182.54 246.168 181.228 240.04 178.86C238.21 178.192 236.457 177.331 234.81 176.29C231.32 174.01 228.7 170.62 225.31 168.2C221.92 165.78 217.08 164.49 213.67 166.88C212.74 167.54 211.84 168.48 210.67 168.42C209.5 168.36 208.67 167.24 207.67 166.55C205.12 164.73 201.56 165.94 198.83 167.48C190.665 172.129 184.129 179.178 180.11 187.67C192.317 188.484 204.422 184.983 214.31 177.78C220.212 186.043 228.784 192.016 238.58 194.69C237.14 196.44 234.77 197.01 232.66 197.83C229.784 198.971 227.184 200.715 225.037 202.943C222.89 205.171 221.244 207.833 220.21 210.75C218.578 208.541 217.402 206.028 216.75 203.36C213.506 205.181 210.367 207.184 207.35 209.36C210.22 207.511 212.579 204.97 214.21 201.97C209.021 200.707 203.553 201.294 198.75 203.63C195.25 205.35 192.01 208.03 188.11 208.24C188.365 206.143 187.875 204.024 186.725 202.253C185.575 200.481 183.839 199.17 181.82 198.55C179.07 197.78 175.52 198.1 174.04 195.65C173.702 194.948 173.405 194.226 173.15 193.49C172.01 190.94 168.99 189.66 166.2 189.74C163.41 189.82 160.78 190.96 158.2 192.09C154.52 193.71 150.87 195.49 147.13 196.95C148.82 195.51 150.71 194.47 152.26 192.91Z" fill="white"/>
<path d="M216.55 227.98C221.517 228.56 226.548 227.761 231.09 225.67C233.57 224.52 235.94 222.98 238.63 222.52C241.32 222.06 244.57 223.13 245.46 225.72C248.69 223.4 249.28 218.79 251.87 215.77C255.68 211.32 263.07 211.6 267.87 214.97C272.67 218.34 275.35 223.97 277.35 229.43C278.86 233.59 280.21 238.04 283.35 241.13C286.49 244.22 292.26 245.22 295.19 241.9C293.241 239.297 292.06 236.2 291.781 232.961C291.502 229.721 292.135 226.468 293.61 223.57C294.29 222.28 295.16 220.98 295.11 219.57C295 216.43 291.11 215.19 288.61 213.27C283.2 209.13 283.91 200.49 279.53 195.27C277.21 192.5 273.28 190.06 273.95 186.51C287.27 189.154 299.898 194.527 311.04 202.29C312.842 203.681 314.794 204.865 316.86 205.82C319.62 206.93 322.67 207.06 325.48 208.02C334.83 211.2 340.24 222.9 350.08 223.71C354.98 224.11 359.57 221.59 364.15 219.78C383.62 212.09 405.59 216.94 425.72 222.69C418.72 218.84 408.83 219.41 404.39 212.77C402.87 210.5 402.2 207.58 400.09 205.84C395.95 202.42 389.9 205.71 384.55 206.22C382.001 206.43 379.441 205.97 377.125 204.884C374.81 203.798 372.818 202.124 371.35 200.03C369.91 197.92 369 195.4 367.11 193.7C364.34 191.22 360.25 191.12 356.53 191.16L339.08 191.32C336.15 191.32 332.85 191.21 330.89 189.03C330.248 188.084 329.54 187.185 328.77 186.34C327.62 185.34 326.02 185.21 324.53 185C319.664 184.322 314.961 182.767 310.65 180.41C309.801 180.051 309.096 179.417 308.65 178.61C307.53 175.96 311.59 174.49 313.86 172.72C317.56 169.82 316.74 164.11 315.56 159.57C318.628 158.912 321.451 157.409 323.71 155.23C319.51 151.36 314.9 146.08 316.71 140.67C317.11 139.48 317.33 137.55 316.08 137.58C314.399 141.232 311.596 144.252 308.08 146.2C306.957 146.659 305.967 147.391 305.2 148.33C303.93 150.33 305.25 153.38 303.67 155.16C303.099 155.726 302.394 156.139 301.62 156.36C296.35 158.25 289.86 158.64 286.69 163.26C285.621 165.14 284.816 167.159 284.3 169.26C282.478 174.496 279.371 179.191 275.263 182.914C271.156 186.637 266.179 189.269 260.79 190.57C258.97 190.99 256.98 191.32 255.7 192.68C254.7 193.68 254.36 195.11 253.53 196.23C251.87 198.48 248.86 199.09 246.25 200.09C238.78 202.94 234.19 209.46 230.02 215.91C228.26 218.63 226.97 219.45 224.08 220.72C222.317 221.387 220.698 222.385 219.31 223.66C219.04 223.96 216.32 227.95 216.55 227.98Z" fill="white"/>
<path d="M348.58 172.27C345.276 173.992 341.787 175.334 338.18 176.27C339.897 176.761 341.544 177.47 343.08 178.38C342.563 180.454 341.348 182.286 339.64 183.57C343.64 183.7 347.43 185.17 351.28 186.22C357.67 187.95 364.28 188.52 370.9 189.09L361.9 182.52C360.58 181.52 359.16 180.46 358.83 178.86C358.698 177.381 359.08 175.901 359.91 174.67C362.19 170.36 364.96 166.42 367.58 162.34C364.36 163.45 360.13 162.53 357.23 163.88C355.42 164.72 355.1 166.5 354.02 167.99C352.563 169.819 350.7 171.284 348.58 172.27Z" fill="white"/>
<path d="M403.04 182.33C402.099 184.643 400.744 186.765 399.04 188.59C400.643 190.054 402.644 191.011 404.79 191.34C405.888 191.431 406.98 191.588 408.06 191.81C409.312 192.236 410.485 192.868 411.53 193.68C418.53 198.53 426.06 204.12 428.01 212.41C429.275 211.701 430.758 211.486 432.172 211.805C433.586 212.125 434.832 212.957 435.67 214.14C436.53 215.45 436.97 217.23 438.4 217.87C439.83 218.51 441.4 217.67 442.53 216.7C443.66 215.73 444.78 214.54 446.25 214.2C447.167 214.05 448.105 214.081 449.01 214.29L462.32 216.44C460.475 214.577 458.237 213.15 455.77 212.263C453.303 211.375 450.669 211.05 448.06 211.31C444.84 211.66 441.48 212.88 438.49 211.66C435.5 210.44 433.96 207.22 431.6 205.04C428.6 202.26 424.27 201.2 421.28 198.39C418.79 196.03 417.47 192.69 415.21 190.11C412.76 187.3 409.27 185.48 407.12 182.44C406.25 181.21 405.56 179.76 404.28 178.98C402.03 177.62 397.41 177.74 394.85 177.5C395.46 180.51 400.16 182.88 403.04 182.33Z" fill="white"/>
<path d="M171.79 156.57C174.05 156.725 176.316 156.765 178.58 156.69C178.8 156.699 179.018 156.647 179.21 156.54C179.407 156.352 179.531 156.101 179.56 155.83L180.37 152.25C180.404 151.933 180.545 151.637 180.77 151.41C180.978 151.294 181.212 151.234 181.45 151.234C181.688 151.234 181.922 151.294 182.13 151.41C184.468 152.287 186.662 153.507 188.64 155.03C187.787 152.45 187.027 149.84 186.36 147.2L192.49 146.12C187.84 145.01 185.49 145.57 182.49 148.86C180.73 150.75 174.49 156.74 171.79 156.57Z" fill="white"/>
<path d="M294.92 88.49C297.996 88.49 300.49 85.9962 300.49 82.92C300.49 79.8438 297.996 77.35 294.92 77.35C291.844 77.35 289.35 79.8438 289.35 82.92C289.35 85.9962 291.844 88.49 294.92 88.49Z" fill="#565661"/>
<path d="M259.22 110.42L294.92 82.92L330.99 110.42" stroke="#565661" stroke-miterlimit="10"/>
<path d="M300.63 184.19L301.07 184.47L301.99 184.37L300.63 184.19Z" fill="url(#paint0_linear)"/>
<path d="M302.04 184.37L309.75 185.37C307.284 184.477 304.652 184.135 302.04 184.37V184.37Z" fill="url(#paint1_linear)"/>
<path d="M605.43 461.24H322V526.87H605.43V461.24Z" fill="#565661"/>
<path opacity="0.1" d="M605.43 461.24H322V526.87H605.43V461.24Z" fill="black"/>
<path d="M355.91 529.03L357.9 704.24L330.64 773.06L328.53 529.03H355.91Z" fill="#BCBEC9"/>
<path d="M324.99 473.84L600.94 475.5V524.38H324.99V473.84Z" fill="#565661"/>
<path d="M577.33 529.03L600.94 532.36V770.4L577.33 697.59V529.03Z" fill="#BCBEC9"/>
<path d="M742.9 463.87H609.91V746.47H742.9V463.87Z" fill="#EFEFF0"/>
<path d="M732.26 471.72H620.55V688.95H732.26V471.72Z" fill="#565661"/>
<path opacity="0.1" d="M732.26 471.72H620.55V688.95H732.26V471.72Z" fill="black"/>
<path d="M732.26 476.17H620.55V524.38H732.26V476.17Z" fill="#565661"/>
<path d="M732.26 529.03H620.55V631.43H732.26V529.03Z" fill="#565661"/>
<path d="M732.26 637.75H620.55V740.15H732.26V637.75Z" fill="#565661"/>
<path d="M625.21 764.87C629.186 764.87 632.41 760.751 632.41 755.67C632.41 750.589 629.186 746.47 625.21 746.47C621.234 746.47 618.01 750.589 618.01 755.67C618.01 760.751 621.234 764.87 625.21 764.87Z" fill="#565661"/>
<path d="M725.06 765.31C729.036 765.31 732.26 761.191 732.26 756.11C732.26 751.029 729.036 746.91 725.06 746.91C721.084 746.91 717.86 751.029 717.86 756.11C717.86 761.191 721.084 765.31 725.06 765.31Z" fill="#565661"/>
<path d="M321 773.06H330.64L327.99 466.32H313.35L321 773.06Z" fill="#EFEFF0"/>
<path d="M600.94 463.87V770.4H609.91V466.32L600.94 463.87Z" fill="#EFEFF0"/>
<path d="M328.46 521.38V532.36H600.94V524.38L328.46 521.38Z" fill="#EFEFF0"/>
<path d="M346.93 443.26H692.37L742.57 459.88V469.52L311.69 466.2V456.39L346.93 443.26Z" fill="#EFEFF0"/>
<path d="M311.69 456.39L742.57 459.88V469.52L311.69 466.2V456.39Z" fill="#BCBEC9"/>
<path d="M425.72 545.71L423.72 545.41C423.72 545.32 423.72 545.24 423.72 545.16C423.66 544.69 423.59 544.23 423.52 543.76C424.34 544.41 425.12 545.06 425.84 545.71H425.72Z" fill="url(#paint2_linear)"/>
<path d="M382.26 700.12C383.56 699.82 384.88 699.57 386.2 699.39C395.266 698.099 404.511 699.46 412.82 703.31C411.98 709.49 411.15 715.88 412.93 721.85C414.17 726.05 416.66 729.85 417.19 734.23C418.525 734.46 419.771 735.056 420.786 735.954C421.802 736.851 422.548 738.013 422.94 739.31C423.324 740.457 423.516 741.66 423.51 742.87C423.499 744.367 423.311 745.857 422.95 747.31C422.828 748.471 422.259 749.538 421.362 750.285C420.466 751.032 419.313 751.4 418.15 751.31C410.41 752.19 402.82 749.14 395.62 746.15L381.62 740.33C379.98 739.65 378.33 738.96 376.76 738.12C373.782 736.511 371.138 734.349 368.97 731.75C368.524 731.292 368.209 730.722 368.06 730.1C367.8 728.34 369.86 727.29 371.17 726.1C371.554 725.737 371.89 725.327 372.17 724.88C373.72 722.54 373.87 719.31 374.8 716.55C377 710 383.8 705.78 386.2 699.39C386.33 699.04 386.45 698.69 386.55 698.33" fill="#A26565"/>
<path opacity="0.1" d="M423.51 742.87C423.499 744.367 423.311 745.857 422.95 747.31C422.828 748.471 422.259 749.538 421.362 750.285C420.466 751.032 419.313 751.4 418.15 751.31C410.41 752.19 402.82 749.14 395.62 746.15L381.62 740.33C379.98 739.65 378.33 738.96 376.76 738.12C373.782 736.511 371.138 734.349 368.97 731.75C368.524 731.292 368.209 730.722 368.06 730.1C367.8 728.34 369.86 727.29 371.17 726.1C371.554 725.737 371.89 725.327 372.17 724.88C376.03 725.71 380.82 728.14 383.77 729.08C386.725 729.885 389.562 731.071 392.21 732.61C395.89 734.97 398.54 738.61 401.66 741.61C404.78 744.61 408.81 747.34 413.16 746.97C415.46 746.623 417.677 745.857 419.7 744.71L423.51 742.87Z" fill="black"/>
<path d="M407.12 600.76C407.38 601.667 407.357 602.632 407.053 603.526C406.749 604.42 406.179 605.199 405.42 605.76C404.11 606.57 402.42 606.46 401.12 607.34C399.51 608.47 399.28 610.71 399 612.65C398 619.32 394.69 625.37 391.86 631.5C389.03 637.63 386.64 644.32 387.68 650.98C388.39 655.5 390.61 660.32 388.53 664.39C388.02 665.39 387.26 666.28 386.68 667.25C383.83 672.01 385.45 678.04 385.34 683.58C385.382 684.195 385.246 684.809 384.95 685.35C384.513 685.861 383.975 686.276 383.37 686.57C382.355 687.316 381.521 688.282 380.93 689.395C380.34 690.509 380.008 691.741 379.96 693C379.876 695.518 380.179 698.034 380.86 700.46C380.97 701.439 381.403 702.354 382.09 703.06C382.886 703.586 383.826 703.852 384.78 703.82C391.063 704.329 397.225 705.828 403.04 708.26C406.83 709.84 410.51 711.82 414.54 712.58C414.93 712.701 415.34 712.741 415.746 712.698C416.152 712.655 416.544 712.53 416.9 712.33C417.407 711.873 417.757 711.267 417.9 710.6C419.45 705.5 421.02 700.24 420.49 694.94C420.26 692.66 419.65 690.43 419.49 688.15C418.79 679.15 424.88 671.03 426.81 662.15C427.68 658.15 427.68 654.01 428.3 649.97C429.98 638.9 436.08 628.97 438.43 618.02C438.757 615.979 439.266 613.971 439.95 612.02C441.7 607.78 445.75 604.34 445.84 599.75C445.896 598.74 445.63 597.739 445.08 596.89C444.137 595.855 442.885 595.154 441.51 594.89C436.051 593.399 430.494 592.289 424.88 591.57C422.319 591.067 419.706 590.886 417.1 591.03C413.716 591.428 410.464 592.576 407.58 594.39C403.8 596.75 406.28 597.32 407.12 600.76Z" fill="#454B69"/>
<path opacity="0.05" d="M407.12 600.76C407.38 601.667 407.357 602.632 407.053 603.526C406.749 604.42 406.179 605.199 405.42 605.76C404.11 606.57 402.42 606.46 401.12 607.34C399.51 608.47 399.28 610.71 399 612.65C398 619.32 394.69 625.37 391.86 631.5C389.03 637.63 386.64 644.32 387.68 650.98C388.39 655.5 390.61 660.32 388.53 664.39C388.02 665.39 387.26 666.28 386.68 667.25C383.83 672.01 385.45 678.04 385.34 683.58C385.382 684.195 385.246 684.809 384.95 685.35C384.513 685.861 383.975 686.276 383.37 686.57C382.355 687.316 381.521 688.282 380.93 689.395C380.34 690.509 380.008 691.741 379.96 693C379.876 695.518 380.179 698.034 380.86 700.46C380.97 701.439 381.403 702.354 382.09 703.06C382.886 703.586 383.826 703.852 384.78 703.82C391.063 704.329 397.225 705.828 403.04 708.26C406.83 709.84 410.51 711.82 414.54 712.58C414.93 712.701 415.34 712.741 415.746 712.698C416.152 712.655 416.544 712.53 416.9 712.33C417.407 711.873 417.757 711.267 417.9 710.6C419.45 705.5 421.02 700.24 420.49 694.94C420.26 692.66 419.65 690.43 419.49 688.15C418.79 679.15 424.88 671.03 426.81 662.15C427.68 658.15 427.68 654.01 428.3 649.97C429.98 638.9 436.08 628.97 438.43 618.02C438.757 615.979 439.266 613.971 439.95 612.02C441.7 607.78 445.75 604.34 445.84 599.75C445.896 598.74 445.63 597.739 445.08 596.89C444.137 595.855 442.885 595.154 441.51 594.89C436.051 593.399 430.494 592.289 424.88 591.57C422.319 591.067 419.706 590.886 417.1 591.03C413.716 591.428 410.464 592.576 407.58 594.39C403.8 596.75 406.28 597.32 407.12 600.76Z" fill="black"/>
<path d="M387.55 751.47H379.02L373.44 636.83L373.05 630.31L380.3 627.76L380.79 634.69L387.55 751.47Z" fill="#565661"/>
<path opacity="0.1" d="M380.79 634.69L373.44 636.83L373.05 630.31L380.3 627.76L380.79 634.69Z" fill="black"/>
<path d="M494.58 775.72L480.51 777.42L415.69 630.31L398.21 629.03L367.51 637.99L361.54 813.14H347.47L353.01 631.59L319.32 632.45L259.2 782.11H246.41L309.64 607.2L312.08 600.46L406.31 597.23L429.8 610.4L430.1 611.16L494.58 775.72Z" fill="#565661"/>
<path opacity="0.1" d="M430.1 611.16C409.85 617.26 388.83 623.92 388.83 623.92C388.83 623.92 369.66 630.61 361.54 623.92C360.516 623.121 359.372 622.49 358.15 622.05C359.204 622.803 360.341 623.43 361.54 623.92L309.64 607.19L312.07 600.46L406.31 597.23L429.8 610.4L430.1 611.16Z" fill="black"/>
<path d="M334.25 582.13L372.62 573.57C372.62 573.57 464.3 590.63 471.12 597.45C471.12 597.45 397.78 612.37 389.68 617.45C381.58 622.53 333.39 628.18 334.25 582.13Z" fill="white"/>
<path d="M317.75 486.24C314.75 495.75 306.56 504.32 296.59 504.73C295.865 504.815 295.13 504.683 294.48 504.35C293.23 503.57 293.2 501.74 293.71 500.35C294.22 498.96 295.11 497.71 295.25 496.25C295.28 495.952 295.26 495.651 295.19 495.36C294.93 494.17 293.96 493.11 292.82 493.36C293.596 492.739 294.113 491.851 294.27 490.869C294.428 489.887 294.214 488.882 293.67 488.05C293.217 487.539 292.809 486.99 292.45 486.41C291.62 484.71 292.91 482.8 293.45 480.98C294.56 476.98 291.74 472.98 291.51 468.81C291.31 465.08 293.2 461.57 293.67 457.87C294.42 451.87 291.44 446.12 291.09 440.13C290.85 435.95 291.88 431.81 293.03 427.78C294.03 424.18 295.16 420.54 295.23 416.78C295.23 414.05 294.76 411.35 294.63 408.63C294.423 406.143 294.874 403.646 295.94 401.39C296.632 400.063 297.811 399.056 299.23 398.58C302.51 397.48 304.66 399.19 305.14 402.3C305.94 407.59 305.48 412.99 306.53 418.3C307.501 423.266 308.972 428.12 310.92 432.79C312.69 437.01 314.84 441.09 316.2 445.46C317.224 449.062 317.956 452.741 318.39 456.46C319.73 466.45 320.78 476.73 317.75 486.24Z" fill="#6C63FF"/>
<path d="M545.51 728.28C544.245 730.063 542.617 731.559 540.734 732.669C538.85 733.778 536.753 734.478 534.58 734.72C530.24 735.26 525.73 734.17 521.52 735.36C520.868 735.467 520.253 735.734 519.729 736.138C519.206 736.541 518.79 737.067 518.52 737.67C518.416 738.483 518.352 739.301 518.33 740.12C517.84 742.79 514.33 743.39 511.6 743.37L500.34 743.3C498 743.3 495.41 743.17 493.73 741.55C492.931 740.665 492.481 739.521 492.462 738.329C492.444 737.137 492.859 735.979 493.63 735.07C494.187 734.879 494.645 734.475 494.904 733.946C495.163 733.417 495.201 732.807 495.01 732.25C494.819 731.693 494.415 731.235 493.886 730.976C493.357 730.717 492.747 730.679 492.19 730.87C491.985 729.4 492.056 727.904 492.4 726.46C492.4 722.28 493.4 715.28 496.34 712.01C499.95 707.94 506.21 702.68 511.66 701.59C513.503 701.241 515.402 701.329 517.204 701.846C519.007 702.364 520.663 703.297 522.04 704.57C524.62 706.97 526.5 710.73 530.04 711.15C531.97 711.39 533.83 710.48 535.74 710.15C537.911 709.871 540.115 710.269 542.05 711.292C543.985 712.314 545.557 713.909 546.55 715.86C547.035 716.849 547.372 717.903 547.55 718.99C548.068 722.233 547.339 725.552 545.51 728.28V728.28Z" fill="#A26565"/>
<path opacity="0.1" d="M545.51 728.28C544.245 730.063 542.617 731.559 540.734 732.669C538.85 733.778 536.753 734.478 534.58 734.72C530.24 735.26 525.73 734.17 521.52 735.36C520.868 735.467 520.253 735.734 519.729 736.138C519.206 736.541 518.79 737.067 518.52 737.67C518.416 738.483 518.352 739.301 518.33 740.12C517.84 742.79 514.33 743.39 511.6 743.37L500.34 743.3C498 743.3 495.41 743.17 493.73 741.55C492.931 740.665 492.481 739.521 492.462 738.329C492.444 737.137 492.859 735.979 493.63 735.07C500.13 734.8 506.52 735.07 513 733.73C515.63 733.2 518.22 732.5 520.88 732.13C526.64 731.31 532.77 732.01 538.06 729.57C542.47 727.57 545.63 723.5 547.5 718.96C548.04 722.207 547.329 725.537 545.51 728.28V728.28Z" fill="black"/>
<path d="M515.8 712.47C511.8 715.57 507.11 717.99 502.07 718.25C497.03 718.51 491.68 716.25 489.21 711.87C485.6 705.44 488.8 696.5 484.38 690.6C483 688.75 481.01 687.44 479.55 685.65C478.09 683.86 477.25 681.17 478.55 679.27C476.98 679.87 475.32 678.35 474.86 676.73C474.4 675.11 474.69 673.37 474.41 671.73C473.68 667.38 469.41 664.59 467.36 660.73C465.31 656.87 465.59 651.86 465.36 647.29C464.849 636.156 460.704 625.495 453.56 616.94C452.2 615.32 450.46 613.67 448.34 613.75C448.71 610.09 446.27 606.59 443.11 604.75C439.95 602.91 436.19 602.29 432.53 601.93C395.6 598.29 357.12 612.02 321.86 600.47C312.05 597.26 302.59 591.89 296.59 583.47C294.253 580.266 292.581 576.626 291.672 572.765C290.764 568.904 290.637 564.9 291.3 560.99V560.85C292.69 553.75 296.44 552 302.65 548.76C309.819 544.97 317.312 541.827 325.04 539.37C340.04 534.68 356.19 532.99 371.67 536.43C378.9 538.05 385.87 540.73 393.11 542.3C395.96 542.92 398.83 543.36 401.72 543.73C406.21 544.29 410.72 544.66 415.24 545.18C429.693 546.844 443.927 550.046 457.7 554.73C462.83 556.47 467.96 558.46 472.37 561.61C475.866 564.146 478.822 567.354 481.065 571.045C483.307 574.737 484.791 578.838 485.43 583.11C485.85 586.05 485.86 589.11 486.5 591.96C487.107 594.355 487.909 596.697 488.9 598.96C497.445 620.086 504.427 641.811 509.79 663.96C510.094 665.605 510.658 667.192 511.46 668.66C512.74 670.73 514.94 672.12 516.23 674.19C519.23 679.07 516.34 685.88 519 690.96C519.92 692.72 521.45 694.11 522.37 695.87C525.35 701.57 520.92 708.5 515.8 712.47Z" fill="#454B69"/>
<path opacity="0.1" d="M464.7 597.57C466.122 596.445 467.348 595.094 468.33 593.57C469.315 592.039 469.707 590.2 469.43 588.4C469.82 590.677 469.671 593.013 468.996 595.222C468.32 597.431 467.137 599.451 465.54 601.12C463.03 603.69 458.32 606.21 454.65 605.33C455.17 602.39 462.37 599.57 464.7 597.57Z" fill="black"/>
<path opacity="0.1" d="M402.22 547.73C401.918 548.802 401.354 549.782 400.579 550.581C399.804 551.381 398.842 551.975 397.78 552.31C395.648 552.962 393.415 553.223 391.19 553.08H389.19C362.95 552.5 336.43 546.68 310.8 552.23C307.711 552.867 304.681 553.76 301.74 554.9C297.994 556.377 294.486 558.398 291.33 560.9V560.76C292.72 553.66 296.47 551.91 302.68 548.67C309.843 544.912 317.325 541.8 325.04 539.37C340.04 534.68 356.19 532.99 371.67 536.43C378.9 538.05 385.87 540.73 393.11 542.3C395.96 542.92 398.83 543.36 401.72 543.73C402.281 544.984 402.455 546.377 402.22 547.73V547.73Z" fill="black"/>
<path d="M402.22 546.3C401.92 547.374 401.357 548.356 400.582 549.158C399.807 549.96 398.844 550.555 397.78 550.89C395.648 551.543 393.415 551.801 391.19 551.65H389.19C362.95 551.07 336.43 545.25 310.8 550.8C307.712 551.438 304.682 552.328 301.74 553.46C297.817 555.025 294.157 557.183 290.89 559.86C290.123 557.753 289.36 555.643 288.6 553.53C287.68 551.01 290.6 550.45 291.16 548.19C291.53 546.66 290.9 544.92 290.58 543.29C290.498 542.891 290.444 542.487 290.42 542.08C290.24 538.47 291.53 536.39 294.49 534.44C303.27 528.64 313.98 524.66 324 521.67C329.327 519.986 334.83 518.919 340.4 518.49C348.28 518.03 356.15 519.49 363.82 521.34C373.25 523.67 382.58 526.75 390.94 531.68C395.05 534.1 399.04 537.11 401.23 541.36C402.112 542.846 402.461 544.589 402.22 546.3Z" fill="#A26565"/>
<path opacity="0.1" d="M317.75 486.24C314.75 495.75 306.56 504.32 296.59 504.73C295.865 504.815 295.13 504.683 294.48 504.35C293.23 503.57 293.2 501.74 293.71 500.35C294.22 498.96 295.11 497.71 295.25 496.25C295.28 495.952 295.26 495.651 295.19 495.36C300.48 487.9 305.61 480.36 307.64 471.53C308.051 470.01 308.176 468.426 308.01 466.86C307.74 465.06 306.83 463.43 306.33 461.69C305.45 458.61 305.86 455.35 306.11 452.16C307.159 438.097 304.814 423.987 299.27 411.02C297.92 407.9 296.38 404.74 295.91 401.41C296.602 400.083 297.781 399.076 299.2 398.6C302.48 397.5 304.63 399.21 305.11 402.32C305.91 407.61 305.45 413.01 306.5 418.32C307.471 423.286 308.942 428.14 310.89 432.81C312.66 437.03 314.81 441.11 316.17 445.48C317.194 449.082 317.926 452.761 318.36 456.48C319.73 466.45 320.78 476.73 317.75 486.24Z" fill="black"/>
<path opacity="0.1" d="M402.22 546.3C401.92 547.374 401.357 548.356 400.582 549.158C399.807 549.96 398.844 550.555 397.78 550.89C395.648 551.543 393.415 551.801 391.19 551.65H389.19C380.648 545.977 370.379 543.498 360.19 544.65C356.93 545.04 353.67 545.8 350.41 545.5C343.82 544.9 338.48 540.16 332.61 537.13C325.93 533.832 318.418 532.605 311.036 533.606C303.654 534.607 296.74 537.792 291.18 542.75L290.61 543.25C290.528 542.851 290.474 542.447 290.45 542.04C290.27 538.43 291.56 536.35 294.52 534.4C303.3 528.6 314.01 524.62 324.03 521.63C329.357 519.946 334.86 518.879 340.43 518.45C348.31 517.99 356.18 519.45 363.85 521.3C373.28 523.63 382.61 526.71 390.97 531.64C395.08 534.06 399.07 537.07 401.26 541.32C402.141 542.821 402.48 544.579 402.22 546.3V546.3Z" fill="black"/>
<path d="M424.65 436.76L424.51 437.12C422.27 442.93 418.15 447.84 415.51 453.5C412.18 460.67 411.36 468.71 410.62 476.59C409.98 483.34 409.35 490.13 409.86 496.9C411.14 513.58 419.29 529.4 421.47 545.76C422.007 549.538 422.145 553.363 421.88 557.17C421.7 559.58 421.26 562.17 419.66 563.95C418.06 565.73 414.95 566.43 413.23 564.72C414 563.25 414.78 561.79 415.56 560.32C410.99 556.77 404.11 559.32 398.77 557.1C396.42 556.1 394.54 554.3 392.57 552.69C388.074 549.034 382.892 546.314 377.33 544.69C371.768 543.065 365.937 542.569 360.18 543.23C356.92 543.63 353.66 544.39 350.4 544.09C343.81 543.48 338.47 538.75 332.6 535.72C325.921 532.423 318.409 531.196 311.028 532.195C303.647 533.195 296.732 536.376 291.17 541.33C289.77 542.63 287.89 544.15 286.17 543.33C285.505 542.923 284.968 542.337 284.62 541.64C278.07 530.45 282.89 516.02 289.89 505.12C296.89 494.22 306.16 484.17 309.04 471.57C309.456 470.05 309.581 468.466 309.41 466.9C309.14 465.1 308.23 463.47 307.73 461.73C306.85 458.65 307.26 455.39 307.51 452.2C308.559 438.137 306.214 424.027 300.67 411.06C299.07 407.33 297.17 403.55 297.17 399.5C297.17 393.12 301.74 387.83 305.52 382.7C309.87 376.8 313.52 370.27 319.03 365.42C324.25 360.81 331.81 357.99 338.27 360.33C349.248 357.675 360.547 356.584 371.83 357.09C375.73 357.27 379.76 357.68 383.18 359.57C386.84 361.57 389.47 365.13 393.07 367.26C395.7 368.83 398.73 369.57 401.59 370.67C409.492 373.762 416.012 379.603 419.95 387.12C423.95 394.87 424.95 403.78 425.83 412.46C426.69 420.57 427.49 429.07 424.65 436.76Z" fill="#6C63FF"/>
<path opacity="0.1" d="M409.86 496.9C411.14 513.58 419.29 529.4 421.47 545.76C417.11 542.04 411.06 538.36 410.23 534.07C409.33 529.43 406.45 523.35 405.97 518.66C405.49 513.97 408.78 508.24 405.33 505.02C403.65 503.45 408.12 503.89 406.48 502.28C402.79 498.69 401.88 493.16 401.65 488.03C401.26 478.95 402.41 469.77 400.74 460.84C399.74 455.33 397.65 450.08 395.98 444.73C394.04 438.5 392.64 432.12 391.24 425.73C389.862 420.049 388.86 414.283 388.24 408.47C387.81 403.47 388.01 398.17 390.24 393.61C392.47 389.05 396.98 385.35 402.04 385.42C418.96 385.64 416.04 408.58 419.76 419.18C421.25 423.4 423.26 427.48 424.07 431.88C424.365 433.605 424.526 435.35 424.55 437.1C422.31 442.91 418.19 447.82 415.55 453.48C412.22 460.65 411.4 468.69 410.66 476.57C409.98 483.34 409.35 490.13 409.86 496.9Z" fill="black"/>
<path d="M420.86 418.92C422.35 423.14 424.36 427.22 425.17 431.62C426.52 438.99 424.43 446.82 426.7 453.96C427.291 455.484 427.785 457.044 428.18 458.63C428.57 460.9 428.12 463.22 428.12 465.53C428.12 469.25 429.29 472.85 430.33 476.42C433.846 488.549 436.174 500.991 437.28 513.57C437.445 516.951 437.978 520.304 438.87 523.57C439.29 524.677 439.65 525.805 439.95 526.95C440.219 528.478 440.282 530.035 440.14 531.58C439.87 536.48 439.32 541.4 439.87 546.28C440.42 551.16 442.2 556.11 445.87 559.38C442.59 560.09 439.12 560.8 435.92 559.75C431.42 558.28 428.72 553.75 426.43 549.63C423.53 544.37 412.51 539.63 411.37 533.72C410.48 529.09 407.6 523.01 407.12 518.31C406.64 513.61 409.92 507.9 406.47 504.68C404.8 503.11 409.27 503.54 407.62 501.94C403.94 498.35 403.03 492.82 402.8 487.68C402.41 478.61 403.55 469.43 401.89 460.5C400.89 454.99 398.8 449.74 397.13 444.38C395.19 438.16 393.79 431.78 392.39 425.38C391.008 419.7 390.006 413.934 389.39 408.12C388.96 403.12 389.15 397.81 391.39 393.25C393.63 388.69 398.14 385 403.19 385.06C420.04 385.37 417.14 408.32 420.86 418.92Z" fill="#6C63FF"/>
<path opacity="0.1" d="M372.64 422.83C374.22 424.68 376.25 426.71 378.64 426.35C378.459 426.638 378.172 426.843 377.841 426.921C377.51 427 377.161 426.945 376.87 426.77C376.296 426.39 375.837 425.861 375.54 425.24L372.12 419.47C371.67 418.72 368.57 414.35 367.81 416.87C367.51 417.94 371.87 421.93 372.64 422.83Z" fill="black"/>
<path opacity="0.1" d="M370.8 437.22C370.702 435.335 369.907 433.553 368.57 432.22C367.368 431.13 365.965 430.284 364.44 429.73C360.69 428.19 356.25 426.95 352.18 427.15C353.66 429.31 358.41 430.6 360.79 431.82C364.163 433.56 367.5 435.36 370.8 437.22Z" fill="black"/>
<path opacity="0.1" d="M381.45 478.18C380.76 483.3 376.57 487.18 372.33 490.18C368.09 493.18 363.33 495.76 360.56 500.1C358.64 503.1 357.78 506.58 356.15 509.71C354.35 513.16 351.66 516.06 349.51 519.3C347.36 522.54 345.68 526.41 346.34 530.25C346.349 530.427 346.395 530.6 346.474 530.758C346.553 530.916 346.664 531.056 346.8 531.17C347.006 531.257 347.231 531.29 347.453 531.265C347.676 531.241 347.888 531.16 348.07 531.03C352.43 528.75 354.15 523.54 355.98 519.03C357.901 514.478 360.064 510.031 362.46 505.71C363.54 503.71 364.73 501.53 366.74 500.42C368.116 499.847 369.525 499.356 370.96 498.95C372.995 498.017 374.78 496.615 376.17 494.86C381.629 488.347 384.479 480.042 384.17 471.55C384.11 469.76 384.01 461.14 381.32 463.8C378.63 466.46 381.91 474.7 381.45 478.18Z" fill="black"/>
<path d="M388.04 281.81C396.64 285.56 404.04 293.81 403.77 303.16C403.54 312.98 395.32 322.23 398.15 331.64C399.79 337.1 404.73 340.76 408.64 344.91C423.53 360.67 423.5 388.18 408.56 403.91C402.84 409.91 395.49 414.18 389.44 419.91C368.11 440.01 367.2 474.78 378.62 501.77C369.87 503.662 360.952 504.668 352 504.77C347.81 504.82 342.68 504.06 341.16 500.15C339.76 496.54 342.16 491.66 339.4 488.99C338.1 487.74 336.15 487.57 334.4 487.28C323.14 485.46 313.9 476.47 309.68 465.88C305.46 455.29 305.68 443.37 308.1 432.23C309.82 424.18 312.51 415.32 308.52 408.12C303.52 399.06 289.14 395.24 289.36 384.88C289.54 376.39 299.55 372.26 305.23 365.95C315.71 354.33 310.72 336.3 310.7 320.64C310.7 306.86 315.52 292.64 325.78 283.46C341.04 269.69 370.43 274.16 388.04 281.81Z" fill="#A26565"/>
<g opacity="0.1">
<path opacity="0.1" d="M310.16 397.85C305.77 389.93 294.24 386.01 291.56 378.22C290.219 380.038 289.466 382.222 289.4 384.48C289.18 394.84 303.54 398.66 308.56 407.73C310.208 410.941 310.903 414.557 310.56 418.15C312.14 411.19 313.53 403.93 310.16 397.85Z" fill="black"/>
<path opacity="0.1" d="M399.3 318.82C401.1 313.57 403.71 308.27 403.84 302.82C403.858 302.23 403.842 301.639 403.79 301.05C401.78 307.04 398.7 312.91 399.3 318.82Z" fill="black"/>
<path opacity="0.1" d="M311.88 346.79C315.32 335.92 312.35 322.44 312.34 310.38C312.34 308.92 312.4 307.45 312.51 305.99C311.325 310.651 310.727 315.441 310.73 320.25C310.75 328.86 312.26 338.2 311.88 346.79Z" fill="black"/>
<path opacity="0.1" d="M410.23 393.68C404.51 399.68 397.16 403.95 391.11 409.68C380.31 419.85 374.76 433.78 373.37 448.55C375.95 437.55 381.16 427.42 389.51 419.55C395.51 413.85 402.91 409.6 408.63 403.55C415.434 396.135 419.385 386.546 419.78 376.49C418.053 382.916 414.774 388.819 410.23 393.68Z" fill="black"/>
<path opacity="0.1" d="M353.67 494.51C349.48 494.51 344.35 493.79 342.83 489.88C341.43 486.28 343.83 481.4 341.07 478.72C339.77 477.47 337.81 477.3 336.07 477.01C324.82 475.2 315.58 466.2 311.36 455.62C308.25 447.8 307.58 439.27 308.36 430.85C308.28 431.18 308.21 431.51 308.14 431.85C305.76 442.99 305.51 454.92 309.72 465.51C313.93 476.1 323.18 485.09 334.43 486.9C336.21 487.19 338.17 487.37 339.43 488.61C342.22 491.29 339.79 496.17 341.19 499.77C342.71 503.68 347.84 504.45 352.03 504.4C360.982 504.297 369.9 503.292 378.65 501.4C377.416 498.483 376.338 495.502 375.42 492.47C368.238 493.746 360.964 494.429 353.67 494.51V494.51Z" fill="black"/>
</g>
<path opacity="0.1" d="M386.42 450.9C388.89 452.76 391.57 445.67 390.04 443.9C389.63 444.36 386.04 450.64 386.42 450.9Z" fill="black"/>
<path opacity="0.1" d="M396.95 579.24C399.86 578.24 402.95 577.24 404.85 574.84C406.42 572.91 407.71 565.25 404.39 568.92C401.57 572.05 400.24 576.22 396.95 579.24Z" fill="black"/>
<path opacity="0.1" d="M426.58 571.21C426.23 573.57 425.58 576.02 423.91 577.72C423.6 578.04 422.91 578.24 422.82 577.81C424.685 576.817 426.419 575.594 427.98 574.17C431.36 570.82 431.82 562.57 426.67 560.38C426.62 564 427.13 567.57 426.58 571.21Z" fill="black"/>
<path d="M462.15 556.34C462.15 556.34 433.77 545.19 423.51 546.34C413.25 547.49 435.13 563.66 435.13 563.66L448.21 572.48C448.21 572.48 456.21 569.48 456.74 569.25C457.27 569.02 462.15 556.34 462.15 556.34Z" fill="#454B69"/>
<path d="M266.88 436.72C266.88 436.72 288.2 424.36 316.34 439.72C344.48 455.08 349.17 545.47 349.17 545.47C349.17 545.47 337.66 637.57 382.04 617.09C382.04 617.09 463.04 591.94 471.15 597.48C471.15 597.48 478.83 597.48 463.48 600.89C448.13 604.3 388.86 623.06 388.86 623.06C388.86 623.06 369.69 629.76 361.57 623.06C353.45 616.36 330.44 623.92 327.45 577.86C325.471 548.834 321.913 519.938 316.79 491.3L308.88 467.85L266.88 436.72Z" fill="#565661"/>
<path d="M264.32 579.14C264.32 579.14 273.7 485.76 258.32 452.07C244.94 422.71 296.68 436.44 310.18 440.44C312.269 441.065 314.092 442.366 315.36 444.14C323.36 455.39 352.06 500.48 343.6 560.81C343.6 560.81 340.19 614.54 361.51 623.06L295.82 601.9C290.49 600.18 285.08 598.75 279.62 597.51C272.66 595.93 261.32 591.44 264.32 579.14Z" fill="white"/>
<path d="M666.9 412.08C666.9 412.08 662.31 433.46 682.74 435.99L684.01 433.62C684.01 433.62 668.17 418.73 666.9 412.08Z" fill="#6C63FF"/>
<path d="M690.5 433.45L685.75 434.45L685.28 434.56C685.28 434.56 672.6 424.27 672.76 401.3C674.445 404.68 676.454 407.889 678.76 410.88C683.84 417.57 689.55 426.4 690.5 433.45Z" fill="#6C63FF"/>
<path d="M692.11 435.66C691.735 435.902 691.31 436.057 690.867 436.114C690.424 436.172 689.974 436.129 689.55 435.99C677.35 433.14 681.48 393.4 681.48 393.4C682.15 393.71 682.89 398.76 685.69 405.29C690.62 416.76 696.04 432.78 692.11 435.66Z" fill="#6C63FF"/>
<path d="M719.16 412.08C719.16 412.08 719.95 433.46 699.52 435.99L698.26 433.62C698.26 433.62 717.89 418.73 719.16 412.08Z" fill="#6C63FF"/>
<path d="M713.3 401.31C713.46 424.28 697.04 434.57 697.04 434.57L696.57 434.46L691.82 433.46C692.76 426.41 698.48 417.54 703.49 410.9C706.318 407.28 709.617 404.055 713.3 401.31Z" fill="#6C63FF"/>
<path d="M696.44 433.57C695.704 434.462 694.774 435.174 693.72 435.65C693.399 435.795 693.064 435.906 692.72 435.98C689.72 436.68 688.72 434.52 688.84 430.84C689.12 424.29 693.24 412.94 696.93 404.45C699.59 398.33 703.93 393.69 704.59 393.39C704.59 393.4 704.41 424.34 696.44 433.57Z" fill="#6C63FF"/>
<path d="M693.04 379.46C693.04 379.46 679.42 427.76 691.14 435.04C702.86 442.32 696.04 383.73 693.04 379.46Z" fill="#6C63FF"/>
<path opacity="0.1" d="M666.9 412.08C666.9 412.08 662.31 433.46 682.74 435.99L684.01 433.62C684.01 433.62 668.17 418.73 666.9 412.08Z" fill="black"/>
<path opacity="0.1" d="M690.5 433.45L685.75 434.45L685.28 434.56C685.28 434.56 672.6 424.27 672.76 401.3C674.445 404.68 676.454 407.889 678.76 410.88C683.84 417.57 689.55 426.4 690.5 433.45Z" fill="black"/>
<path opacity="0.1" d="M692.11 435.66C691.735 435.902 691.31 436.057 690.867 436.114C690.424 436.172 689.974 436.129 689.55 435.99C677.35 433.14 681.48 393.4 681.48 393.4C682.15 393.71 682.89 398.76 685.69 405.29C690.62 416.76 696.04 432.78 692.11 435.66Z" fill="black"/>
<path opacity="0.1" d="M719.16 412.08C719.16 412.08 719.95 433.46 699.52 435.99L698.26 433.62C698.26 433.62 717.89 418.73 719.16 412.08Z" fill="black"/>
<path opacity="0.1" d="M713.3 401.31C713.46 424.28 697.04 434.57 697.04 434.57L696.57 434.46L691.82 433.46C692.76 426.41 698.48 417.54 703.49 410.9C706.318 407.28 709.617 404.055 713.3 401.31Z" fill="black"/>
<path opacity="0.1" d="M696.44 433.57C695.704 434.462 694.774 435.174 693.72 435.65C693.399 435.795 693.064 435.906 692.72 435.98C689.72 436.68 688.72 434.52 688.84 430.84C689.12 424.29 693.24 412.94 696.93 404.45C699.59 398.33 703.93 393.69 704.59 393.39C704.59 393.4 704.41 424.34 696.44 433.57Z" fill="black"/>
<path opacity="0.1" d="M693.04 379.46C693.04 379.46 679.42 427.76 691.14 435.04C702.86 442.32 696.04 383.73 693.04 379.46Z" fill="black"/>
<path d="M666.9 412.08C666.9 412.08 664.21 433.46 684.64 435.99L685.91 433.62C685.91 433.62 668.17 418.73 666.9 412.08Z" fill="#6C63FF"/>
<path d="M692.4 433.45L687.65 434.45L687.18 434.56C687.18 434.56 672.6 424.27 672.76 401.3C672.76 401.3 676.5 405.3 680.71 410.88C685.74 417.57 691.45 426.4 692.4 433.45Z" fill="#6C63FF"/>
<path opacity="0.1" d="M692.4 433.45L687.65 434.45C683.15 430.5 681.36 420.18 680.71 410.88C685.74 417.57 691.45 426.4 692.4 433.45Z" fill="black"/>
<path d="M694.04 435.66C693.665 435.902 693.24 436.057 692.797 436.114C692.354 436.172 691.904 436.129 691.48 435.99C679.28 433.14 681.48 393.4 681.48 393.4C682.15 393.71 684.79 398.76 687.59 405.29C692.52 416.76 697.92 432.78 694.04 435.66Z" fill="#6C63FF"/>
<path d="M719.16 412.08C719.16 412.08 721.85 433.46 701.42 435.99L700.16 433.62C700.16 433.62 717.89 418.73 719.16 412.08Z" fill="#6C63FF"/>
<path d="M713.3 401.31C713.46 424.31 698.89 434.57 698.89 434.57L698.42 434.46L693.67 433.46C694.61 426.41 700.33 417.54 705.34 410.9C709.57 405.31 713.3 401.31 713.3 401.31Z" fill="#6C63FF"/>
<path opacity="0.1" d="M705.34 410.89C704.73 419.56 703.15 429.11 699.34 433.58C699.07 433.893 698.78 434.187 698.47 434.46L693.72 433.46C694.61 426.4 700.33 417.57 705.34 410.89Z" fill="black"/>
<path d="M698.34 433.57C697.604 434.462 696.674 435.174 695.62 435.65C695.299 435.795 694.964 435.906 694.62 435.98C691.62 436.68 690.57 434.52 690.74 430.84C691.02 424.29 695.14 412.94 698.83 404.45C701.49 398.33 703.95 393.69 704.59 393.39C704.59 393.4 706.31 424.34 698.34 433.57Z" fill="#6C63FF"/>
<path opacity="0.1" d="M694.04 435.66C693.348 435.658 692.674 435.441 692.11 435.04C686.37 431.47 686.26 418.04 687.62 405.29C692.52 416.76 697.92 432.78 694.04 435.66Z" fill="black"/>
<path opacity="0.1" d="M698.34 433.57C697.68 434.99 696.79 435.75 695.62 435.65C695.037 435.568 694.48 435.356 693.99 435.03C692.499 434.005 691.366 432.54 690.75 430.84C691.03 424.29 695.15 412.94 698.84 404.45C700.15 416.25 700.59 428.74 698.34 433.57Z" fill="black"/>
<path d="M693.04 379.46C693.04 379.46 681.32 427.76 693.04 435.04C704.76 442.32 696.04 383.73 693.04 379.46Z" fill="#6C63FF"/>
<path d="M711.41 437.42L710.59 441.69L707.61 457.37H679.25L676.27 441.69L675.45 437.42H711.41Z" fill="#565661"/>
<path opacity="0.1" d="M711.41 437.42L710.59 441.69H676.27L675.45 437.42H711.41Z" fill="black"/>
<path d="M717.42 432.67H668.65V440.75H717.42V432.67Z" fill="#565661"/>
<path d="M552.77 448.18L526.04 450.33L487.95 447.85L488.61 447.79L523.89 444.39C531.97 441.39 526.37 423.94 526.37 423.94L553.37 425.32L555.52 425.43C565.13 447.85 552.77 448.18 552.77 448.18Z" fill="#D1D9EC"/>
<path opacity="0.1" d="M552.77 448.18L526.04 450.33L487.95 447.85L488.61 447.79L527.11 449.17L552.91 446.37C560.23 444.44 556.04 431.73 553.4 425.32L555.55 425.43C565.13 447.85 552.77 448.18 552.77 448.18Z" fill="black"/>
<path d="M599.54 289.38L591.37 406.57L590.3 421.96C590.181 423.654 589.42 425.239 588.174 426.393C586.927 427.546 585.288 428.182 583.59 428.17H581.11L458.11 427.42C457.63 427.417 457.156 427.314 456.719 427.117C456.281 426.92 455.889 426.634 455.568 426.278C455.248 425.921 455.005 425.501 454.855 425.045C454.706 424.59 454.653 424.107 454.7 423.63L455.76 413.24L464.41 328.18C464.548 326.834 465.066 325.555 465.904 324.493C466.741 323.431 467.864 322.628 469.14 322.18L586.37 281.59C590.37 280.21 594.37 280.7 596.96 282.81C597.898 283.608 598.624 284.625 599.074 285.772C599.524 286.918 599.684 288.157 599.54 289.38Z" fill="#4C4C56"/>
<path d="M591.37 406.57L590.3 421.96C590.181 423.654 589.42 425.239 588.174 426.393C586.927 427.546 585.288 428.182 583.59 428.17H581.11L458.11 427.42C457.63 427.417 457.156 427.314 456.719 427.117C456.281 426.92 455.889 426.634 455.568 426.278C455.248 425.921 455.005 425.501 454.855 425.045C454.706 424.59 454.653 424.107 454.7 423.63L455.76 413.24L591.37 406.57Z" fill="#DFE6F5"/>
<path d="M508.91 422.63C509.821 422.63 510.56 421.153 510.56 419.33C510.56 417.507 509.821 416.03 508.91 416.03C507.999 416.03 507.26 417.507 507.26 419.33C507.26 421.153 507.999 422.63 508.91 422.63Z" fill="white"/>
<path d="M569.12 452.04C569.12 452.04 602.76 439.34 611.83 448.58C611.83 448.58 613.31 451.38 607.21 452.04L582.56 454.04C582.56 454.04 572.42 455.01 569.12 452.04Z" fill="#D1D9EC"/>
<path d="M570.04 448.74C576.65 446.04 596.54 439.05 609.27 446.74C609.27 446.74 595.18 445.18 587.45 449.65C579.72 454.12 569.14 452 569.14 452L568.99 451.72C568.848 451.458 568.763 451.17 568.739 450.873C568.716 450.576 568.755 450.278 568.854 449.997C568.952 449.716 569.109 449.459 569.314 449.243C569.518 449.026 569.765 448.855 570.04 448.74V448.74Z" fill="#DFE6F5"/>
<path d="M599.54 289.38L590.3 421.98C590.181 423.674 589.42 425.259 588.174 426.413C586.927 427.566 585.288 428.202 583.59 428.19H581.11C582.814 426.563 584.264 424.689 585.41 422.63C585.41 422.63 594.48 289.41 595.14 286.11C595.434 284.874 596.068 283.745 596.97 282.85C597.9 283.645 598.62 284.656 599.068 285.795C599.516 286.933 599.678 288.164 599.54 289.38V289.38Z" fill="#DFE6F5"/>
<path opacity="0.1" d="M599.54 289.38L590.3 421.98C590.181 423.674 589.42 425.259 588.174 426.413C586.927 427.566 585.288 428.202 583.59 428.19H581.11C582.814 426.563 584.264 424.689 585.41 422.63C585.41 422.63 594.48 289.41 595.14 286.11C595.434 284.874 596.068 283.745 596.97 282.85C597.9 283.645 598.62 284.656 599.068 285.795C599.516 286.933 599.678 288.164 599.54 289.38V289.38Z" fill="black"/>
<path opacity="0.1" d="M148.97 745.72C202.785 745.72 246.41 738.713 246.41 730.07C246.41 721.427 202.785 714.42 148.97 714.42C95.1554 714.42 51.53 721.427 51.53 730.07C51.53 738.713 95.1554 745.72 148.97 745.72Z" fill="#6C63FF"/>
<path d="M152.1 430.26H145.83V571.43H152.1V430.26Z" fill="#535461"/>
<path d="M191.51 571L191.12 577.36L190.56 586.36L190.33 590.1L189.78 599.1L189.54 602.84L188.98 611.84L182.66 713.91C182.385 718.302 180.448 722.424 177.241 725.437C174.034 728.45 169.8 730.128 165.4 730.13H132.53C128.132 730.128 123.9 728.449 120.697 725.435C117.493 722.422 115.56 718.3 115.29 713.91L108.95 611.77L108.4 602.77L108.17 599.03L107.6 590.03L107.37 586.29L106.82 577.29L106.42 570.93C106.351 569.711 106.53 568.491 106.948 567.343C107.365 566.196 108.012 565.145 108.848 564.255C109.684 563.366 110.693 562.656 111.813 562.168C112.932 561.681 114.139 561.426 115.36 561.42H182.58C183.806 561.427 185.018 561.685 186.142 562.177C187.265 562.669 188.276 563.386 189.112 564.283C189.948 565.18 190.592 566.239 191.005 567.394C191.417 568.549 191.589 569.776 191.51 571Z" fill="#565661"/>
<path d="M191.12 577.36L190.56 586.33H107.38L106.82 577.36H191.12Z" fill="#9D9CB5"/>
<path d="M190.33 590.08L189.78 599.06H108.17L107.61 590.08H190.33Z" fill="#9D9CB5"/>
<path d="M189.54 602.8L188.98 611.77H108.95L108.4 602.8H189.54Z" fill="#9D9CB5"/>
<path d="M97.24 483.17C133.76 509.59 148.97 550.91 148.97 550.91C148.97 550.91 104.97 549.4 68.44 522.98C31.91 496.56 16.72 455.25 16.72 455.25C16.72 455.25 60.73 456.76 97.24 483.17Z" fill="#6C63FF"/>
<path d="M16.72 455.25C16.72 455.25 62.39 480.57 77.04 501.57C91.69 522.57 148.96 550.89 148.96 550.89" stroke="#535461" stroke-width="2" stroke-miterlimit="10"/>
<path d="M120.81 429.95C140.69 444.32 148.97 466.82 148.97 466.82C148.97 466.82 124.97 465.99 105.14 451.62C85.31 437.25 77.04 414.75 77.04 414.75C77.04 414.75 100.94 415.57 120.81 429.95Z" fill="#6C63FF"/>
<path d="M77.04 414.75C77.04 414.75 101.9 428.55 109.87 439.97C117.84 451.39 149.02 466.82 149.02 466.82" stroke="#535461" stroke-width="2" stroke-miterlimit="10"/>
<path d="M177.85 465.67C155.04 490.76 150.19 523.57 150.19 523.57C150.19 523.57 182.38 515.67 205.19 490.57C228 465.47 232.85 432.69 232.85 432.69C232.85 432.69 200.68 440.57 177.85 465.67Z" fill="#6C63FF"/>
<path d="M232.87 432.68C232.87 432.68 203.13 458.4 195.57 476.12C188.01 493.84 150.19 523.57 150.19 523.57" stroke="#535461" stroke-width="2" stroke-miterlimit="10"/>
</g>
<defs>
<linearGradient id="paint0_linear" x1="300.63" y1="184.33" x2="301.99" y2="184.33" gradientUnits="userSpaceOnUse">
<stop stop-color="#808080" stop-opacity="0.25"/>
<stop offset="0.54" stop-color="#808080" stop-opacity="0.12"/>
<stop offset="1" stop-color="#808080" stop-opacity="0.1"/>
</linearGradient>
<linearGradient id="paint1_linear" x1="2899.92" y1="428.993" x2="2959.37" y2="428.993" gradientUnits="userSpaceOnUse">
<stop stop-color="#808080" stop-opacity="0.25"/>
<stop offset="0.54" stop-color="#808080" stop-opacity="0.12"/>
<stop offset="1" stop-color="#808080" stop-opacity="0.1"/>
</linearGradient>
<linearGradient id="paint2_linear" x1="1487.02" y1="1690.7" x2="1492.4" y2="1690.7" gradientUnits="userSpaceOnUse">
<stop stop-color="#808080" stop-opacity="0.25"/>
<stop offset="0.54" stop-color="#808080" stop-opacity="0.12"/>
<stop offset="1" stop-color="#808080" stop-opacity="0.1"/>
</linearGradient>
<clipPath id="clip0">
<rect width="1130.08" height="813.14" fill="white"/>
</clipPath>
</defs>
</svg>


