<svg width="878" height="632" viewBox="0 0 878 632" fill="none" xmlns="http://www.w3.org/2000/svg">
<g clip-path="url(#clip0)">
<path opacity="0.1" d="M454.082 103.134C398.635 112.503 343.265 108.486 290.001 102.644C236.737 96.8019 183.605 89.1727 128.134 91.4724C92.4509 92.9485 52.7124 100.018 27.7972 120.567C3.81433 140.332 0.077442 167.003 0.030828 191.079C-0.031324 209.188 1.53801 227.927 14.3724 242.354C23.2912 252.361 37.019 259.531 47.3596 268.769C83.3378 300.855 72.3991 351.377 48.7891 394.331C37.7105 414.484 24.1613 434.303 16.6176 454.93C9.07394 475.556 8.07174 497.659 21.5743 514.479C34.9214 531.066 60.7999 540.497 87.8205 545.368C142.623 555.266 203.68 549.121 262.755 540.793C393.492 522.357 522.885 493.518 651.998 464.75C699.769 454.098 747.751 443.4 793.774 428.049C819.334 419.503 845.36 408.867 861.869 392.311C882.846 371.335 883.374 342.644 863.159 325.498C829.24 296.753 752.466 303.131 726.23 270.268C711.796 252.174 718.081 227.601 729.571 205.894C754.207 159.342 801.823 113.35 795.654 66.9379C791.397 35.085 758.915 8.72474 715.377 1.85695C669.742 -5.33715 611.133 8.30522 584.858 40.3601C557.845 73.3861 503.043 94.8674 454.082 103.134Z" fill="#6C63FF"/>
<path d="M390.602 81.5978H67.6447V233.707H390.602V81.5978Z" fill="#565661"/>
<path d="M384.294 92.7852H75.0874V222.52H384.294V92.7852Z" fill="#DFE6F5"/>
<path d="M118.291 149.872C119.363 148.761 120.28 147.471 121.562 146.617C122.696 145.945 123.913 145.422 125.182 145.063C134.505 141.777 141.784 134.598 149.227 128.103C155.784 122.377 162.675 117.048 169.558 111.726L172.177 113.637L165.891 116.201C165.285 116.45 164.586 116.822 164.555 117.475C164.583 117.891 164.759 118.282 165.052 118.578C166.668 120.66 168.486 122.882 171.058 123.465C172.285 123.745 173.769 123.706 174.531 124.708C174.834 125.204 175.045 125.752 175.152 126.324C176.147 129.711 179.215 132.034 182.23 133.875C188.184 137.499 194.639 140.227 201.388 141.971C196.286 141.816 191.248 140.796 186.487 138.956C185.065 138.438 183.703 137.768 182.424 136.96C179.713 135.188 177.677 132.555 175.043 130.675C172.41 128.795 168.649 127.792 166 129.649C165.278 130.162 164.579 130.892 163.67 130.846C162.761 130.799 162.116 129.929 161.339 129.393C159.358 127.979 156.592 128.919 154.471 130.115C148.128 133.727 143.05 139.203 139.927 145.801C149.411 146.433 158.815 143.713 166.497 138.117C171.083 144.537 177.743 149.177 185.353 151.255C184.234 152.614 182.393 153.057 180.754 153.694C178.519 154.581 176.5 155.935 174.831 157.666C173.163 159.398 171.884 161.466 171.081 163.732C169.813 162.015 168.899 160.064 168.393 157.99C165.873 159.405 163.434 160.961 161.09 162.652C163.32 161.215 165.153 159.241 166.42 156.911C162.388 155.929 158.14 156.385 154.409 158.2C151.69 159.536 149.173 161.619 146.143 161.782C146.341 160.153 145.96 158.506 145.067 157.13C144.173 155.754 142.824 154.736 141.256 154.254C139.119 153.655 136.361 153.904 135.212 152.001C134.949 151.455 134.718 150.895 134.52 150.322C133.635 148.341 131.288 147.347 129.121 147.409C126.953 147.471 124.91 148.357 122.906 149.235C120.047 150.493 117.211 151.876 114.305 153.01C115.618 151.892 117.087 151.084 118.291 149.872Z" fill="white"/>
<path d="M168.238 177.118C172.096 177.568 176.005 176.948 179.534 175.323C181.461 174.43 183.302 173.233 185.392 172.876C187.482 172.518 190.006 173.35 190.698 175.362C193.207 173.559 193.666 169.978 195.678 167.632C198.638 164.175 204.379 164.392 208.108 167.01C211.837 169.628 213.919 174.002 215.473 178.244C216.646 181.476 217.695 184.933 220.135 187.334C222.574 189.735 227.057 190.511 229.333 187.932C227.819 185.91 226.902 183.504 226.685 180.987C226.468 178.47 226.96 175.943 228.106 173.692C228.634 172.689 229.31 171.679 229.271 170.584C229.186 168.144 226.163 167.181 224.221 165.69C220.018 162.473 220.57 155.761 217.167 151.705C215.364 149.553 212.311 147.658 212.832 144.9C223.18 146.954 232.991 151.128 241.647 157.159C243.047 158.24 244.564 159.159 246.169 159.902C248.313 160.764 250.682 160.865 252.865 161.611C260.129 164.081 264.332 173.171 271.977 173.8C275.784 174.111 279.35 172.153 282.908 170.747C298.034 164.773 315.103 168.541 330.742 173.008C325.304 170.017 317.62 170.46 314.171 165.301C312.99 163.537 312.469 161.269 310.83 159.917C307.614 157.26 302.913 159.816 298.757 160.212C296.777 160.376 294.788 160.018 292.989 159.174C291.19 158.33 289.643 157.03 288.502 155.403C287.383 153.764 286.676 151.806 285.208 150.486C283.056 148.559 279.878 148.481 276.988 148.512L263.431 148.637C261.155 148.637 258.591 148.551 257.068 146.857C256.57 146.123 256.019 145.424 255.421 144.768C254.528 143.991 253.285 143.89 252.127 143.727C248.347 143.2 244.693 141.991 241.344 140.161C240.684 139.881 240.137 139.389 239.79 138.762C238.92 136.703 242.074 135.561 243.838 134.186C246.712 131.933 246.075 127.497 245.159 123.97C247.542 123.459 249.736 122.291 251.49 120.598C248.227 117.592 244.646 113.49 246.052 109.287C246.363 108.362 246.534 106.863 245.563 106.886C244.257 109.723 242.079 112.069 239.347 113.583C238.475 113.939 237.706 114.508 237.11 115.238C236.123 116.791 237.149 119.161 235.921 120.544C235.477 120.984 234.93 121.305 234.329 121.476C230.234 122.944 225.192 123.247 222.729 126.837C221.899 128.297 221.274 129.866 220.873 131.498C219.457 135.566 217.043 139.213 213.852 142.106C210.661 144.998 206.795 147.043 202.608 148.054C201.194 148.38 199.648 148.637 198.653 149.693C197.876 150.47 197.612 151.581 196.967 152.451C195.678 154.199 193.339 154.673 191.312 155.45C185.508 157.664 181.942 162.729 178.703 167.741C177.335 169.854 176.333 170.491 174.088 171.477C172.718 171.996 171.46 172.771 170.382 173.761C170.172 173.995 168.059 177.094 168.238 177.118Z" fill="white"/>
<path d="M270.812 133.837C268.245 135.175 265.534 136.217 262.732 136.944C264.066 137.325 265.345 137.876 266.539 138.583C266.137 140.194 265.194 141.618 263.866 142.616C266.974 142.717 269.918 143.859 272.909 144.674C277.874 146.018 283.009 146.461 288.152 146.904L281.16 141.8C280.135 141.023 279.031 140.199 278.775 138.956C278.673 137.807 278.969 136.658 279.614 135.701C281.385 132.353 283.537 129.292 285.573 126.122C283.071 126.984 279.785 126.27 277.532 127.318C276.126 127.971 275.877 129.354 275.038 130.511C273.906 131.932 272.459 133.071 270.812 133.837Z" fill="white"/>
<path d="M313.122 141.652C312.391 143.449 311.338 145.097 310.014 146.516C311.26 147.653 312.814 148.396 314.481 148.652C315.335 148.723 316.183 148.845 317.022 149.017C317.995 149.349 318.906 149.84 319.718 150.47C325.156 154.238 331.006 158.581 332.521 165.021C333.504 164.471 334.656 164.304 335.754 164.552C336.853 164.8 337.821 165.446 338.472 166.365C339.14 167.383 339.482 168.766 340.593 169.263C341.704 169.76 342.924 169.108 343.802 168.354C344.679 167.601 345.55 166.676 346.692 166.412C347.404 166.296 348.133 166.319 348.836 166.482L359.176 168.152C357.743 166.705 356.004 165.596 354.088 164.907C352.171 164.217 350.125 163.964 348.098 164.167C345.596 164.439 342.986 165.387 340.663 164.439C338.34 163.491 337.144 160.989 335.31 159.296C332.979 157.136 329.615 156.312 327.292 154.129C325.358 152.296 324.332 149.701 322.577 147.696C320.673 145.513 317.962 144.099 316.292 141.738C315.616 140.782 315.08 139.656 314.085 139.05C312.337 137.993 308.748 138.086 306.759 137.9C307.233 140.238 310.884 142.08 313.122 141.652Z" fill="white"/>
<path d="M133.464 121.639C135.219 121.76 136.98 121.791 138.739 121.732C138.91 121.739 139.079 121.699 139.228 121.616C139.381 121.47 139.478 121.275 139.5 121.064L140.129 118.283C140.156 118.037 140.266 117.807 140.44 117.63C140.602 117.541 140.784 117.494 140.968 117.494C141.153 117.494 141.335 117.541 141.497 117.63C143.313 118.312 145.017 119.26 146.554 120.443C145.891 118.438 145.301 116.411 144.783 114.36L149.545 113.521C145.933 112.658 144.107 113.093 141.776 115.649C140.409 117.118 135.561 121.771 133.464 121.639Z" fill="white"/>
<path d="M229.123 68.7479C231.513 68.7479 233.451 66.8105 233.451 64.4205C233.451 62.0306 231.513 60.0932 229.123 60.0932C226.733 60.0932 224.796 62.0306 224.796 64.4205C224.796 66.8105 226.733 68.7479 229.123 68.7479Z" fill="#565661"/>
<path d="M201.388 85.7853L229.123 64.4205L257.146 85.7853" stroke="#565661" stroke-width="0.7769" stroke-miterlimit="10"/>
<path d="M233.559 143.097L233.901 143.315L234.616 143.237L233.559 143.097Z" fill="url(#paint0_linear)"/>
<path d="M234.655 143.237L240.645 144.014C238.729 143.32 236.684 143.055 234.655 143.237V143.237Z" fill="url(#paint1_linear)"/>
<path d="M470.359 358.337H250.162V409.325H470.359V358.337Z" fill="#565661"/>
<path opacity="0.1" d="M470.359 358.337H250.162V409.325H470.359V358.337Z" fill="black"/>
<path d="M276.507 411.003L278.053 547.124L256.874 600.59L255.235 411.003H276.507Z" fill="#BCBEC9"/>
<path d="M252.485 368.126L466.87 369.416V407.391H252.485V368.126Z" fill="#565661"/>
<path d="M448.528 411.003L466.87 413.59V598.524L448.528 541.958V411.003Z" fill="#BCBEC9"/>
<path d="M577.159 360.381H473.839V579.933H577.159V360.381Z" fill="#EFEFF0"/>
<path d="M568.893 366.479H482.105V535.245H568.893V366.479Z" fill="#565661"/>
<path opacity="0.1" d="M568.893 366.479H482.105V535.245H568.893V366.479Z" fill="black"/>
<path d="M568.893 369.936H482.105V407.391H568.893V369.936Z" fill="#565661"/>
<path d="M568.893 411.003H482.105V490.558H568.893V411.003Z" fill="#565661"/>
<path d="M568.893 495.468H482.105V575.023H568.893V495.468Z" fill="#565661"/>
<path d="M485.726 594.228C488.815 594.228 491.319 591.027 491.319 587.08C491.319 583.133 488.815 579.933 485.726 579.933C482.636 579.933 480.132 583.133 480.132 587.08C480.132 591.027 482.636 594.228 485.726 594.228Z" fill="#565661"/>
<path d="M563.299 594.569C566.388 594.569 568.893 591.369 568.893 587.422C568.893 583.474 566.388 580.274 563.299 580.274C560.21 580.274 557.705 583.474 557.705 587.422C557.705 591.369 560.21 594.569 563.299 594.569Z" fill="#565661"/>
<path d="M249.385 600.59H256.874L254.815 362.284H243.442L249.385 600.59Z" fill="#EFEFF0"/>
<path d="M466.87 360.381V598.524H473.839V362.284L466.87 360.381Z" fill="#EFEFF0"/>
<path d="M255.181 405.06V413.59H466.87V407.391L255.181 405.06Z" fill="#EFEFF0"/>
<path d="M269.53 344.369H537.902L576.903 357.281V364.77L242.152 362.191V354.569L269.53 344.369Z" fill="#EFEFF0"/>
<path d="M242.152 354.569L576.903 357.281V364.77L242.152 362.191V354.569Z" fill="#BCBEC9"/>
<path d="M330.742 423.962L329.188 423.729C329.188 423.659 329.188 423.597 329.188 423.535C329.141 423.17 329.087 422.812 329.033 422.447C329.67 422.952 330.276 423.457 330.835 423.962H330.742Z" fill="url(#paint2_linear)"/>
<path d="M296.978 543.923C297.988 543.69 299.013 543.496 300.039 543.356C307.082 542.353 314.265 543.411 320.72 546.402C320.067 551.203 319.422 556.167 320.805 560.805C321.769 564.068 323.703 567.02 324.115 570.423C325.152 570.602 326.12 571.065 326.909 571.762C327.698 572.459 328.277 573.362 328.582 574.37C328.88 575.261 329.03 576.196 329.025 577.136C329.016 578.299 328.87 579.456 328.59 580.585C328.495 581.487 328.053 582.316 327.356 582.896C326.66 583.477 325.765 583.762 324.861 583.693C318.848 584.376 312.951 582.007 307.357 579.684L296.481 575.162C295.206 574.634 293.925 574.098 292.705 573.445C290.391 572.195 288.337 570.516 286.653 568.497C286.306 568.141 286.062 567.698 285.946 567.215C285.744 565.847 287.344 565.032 288.362 564.107C288.66 563.825 288.921 563.507 289.139 563.159C290.343 561.341 290.46 558.832 291.182 556.688C292.891 551.599 298.174 548.32 300.039 543.356C300.14 543.084 300.233 542.812 300.311 542.533" fill="#A26565"/>
<path opacity="0.1" d="M329.025 577.136C329.016 578.299 328.87 579.457 328.59 580.585C328.495 581.487 328.053 582.316 327.356 582.896C326.66 583.477 325.765 583.762 324.861 583.693C318.848 584.376 312.951 582.007 307.357 579.684L296.481 575.162C295.206 574.634 293.925 574.098 292.705 573.445C290.391 572.195 288.337 570.516 286.653 568.497C286.306 568.141 286.062 567.698 285.946 567.215C285.744 565.847 287.344 565.032 288.362 564.107C288.66 563.825 288.921 563.507 289.139 563.159C292.138 563.804 295.859 565.692 298.151 566.422C300.447 567.047 302.651 567.969 304.708 569.165C307.567 570.998 309.626 573.826 312.05 576.157C314.474 578.488 317.605 580.608 320.984 580.321C322.771 580.052 324.493 579.457 326.065 578.565L329.025 577.136Z" fill="black"/>
<path d="M316.292 466.731C316.494 467.435 316.475 468.185 316.239 468.88C316.003 469.574 315.561 470.179 314.971 470.615C313.953 471.244 312.64 471.159 311.63 471.843C310.379 472.72 310.201 474.461 309.983 475.968C309.206 481.15 306.635 485.85 304.436 490.612C302.237 495.375 300.381 500.572 301.189 505.746C301.74 509.258 303.465 513.003 301.849 516.165C301.453 516.942 300.862 517.633 300.412 518.387C298.198 522.085 299.456 526.769 299.371 531.073C299.403 531.551 299.298 532.028 299.068 532.449C298.728 532.846 298.31 533.168 297.84 533.396C297.051 533.976 296.404 534.727 295.945 535.591C295.486 536.456 295.229 537.414 295.191 538.392C295.126 540.348 295.361 542.303 295.89 544.187C295.976 544.948 296.312 545.659 296.846 546.207C297.464 546.616 298.195 546.823 298.936 546.798C303.817 547.193 308.604 548.358 313.122 550.247C316.066 551.475 318.925 553.013 322.056 553.604C322.359 553.698 322.678 553.729 322.993 553.695C323.308 553.662 323.613 553.565 323.89 553.409C324.283 553.054 324.555 552.584 324.667 552.065C325.871 548.103 327.09 544.017 326.679 539.899C326.5 538.128 326.026 536.395 325.902 534.624C325.358 527.632 330.089 521.323 331.589 514.424C332.265 511.317 332.265 508.1 332.746 504.962C334.052 496.362 338.791 488.647 340.616 480.14C340.87 478.554 341.266 476.994 341.797 475.478C343.157 472.184 346.303 469.512 346.373 465.946C346.416 465.161 346.21 464.383 345.783 463.724C345.05 462.92 344.077 462.375 343.009 462.17C338.768 461.011 334.451 460.15 330.089 459.591C328.1 459.2 326.069 459.059 324.045 459.171C321.416 459.48 318.889 460.372 316.649 461.782C313.712 463.615 315.639 464.058 316.292 466.731Z" fill="#454B69"/>
<path opacity="0.05" d="M316.292 466.731C316.494 467.435 316.475 468.185 316.239 468.88C316.003 469.574 315.561 470.179 314.971 470.615C313.953 471.244 312.64 471.159 311.63 471.843C310.379 472.72 310.201 474.461 309.983 475.968C309.206 481.15 306.635 485.85 304.436 490.612C302.237 495.375 300.381 500.572 301.189 505.746C301.74 509.258 303.465 513.003 301.849 516.165C301.453 516.942 300.862 517.633 300.412 518.387C298.198 522.085 299.456 526.769 299.371 531.073C299.403 531.551 299.298 532.028 299.068 532.449C298.728 532.846 298.31 533.168 297.84 533.396C297.051 533.976 296.404 534.727 295.945 535.591C295.486 536.456 295.229 537.414 295.191 538.392C295.126 540.348 295.361 542.303 295.89 544.187C295.976 544.948 296.312 545.659 296.846 546.207C297.464 546.616 298.195 546.823 298.936 546.798C303.817 547.193 308.604 548.358 313.122 550.247C316.066 551.475 318.925 553.013 322.056 553.604C322.359 553.698 322.678 553.729 322.993 553.695C323.308 553.662 323.613 553.565 323.89 553.409C324.283 553.054 324.555 552.584 324.667 552.065C325.871 548.103 327.09 544.017 326.679 539.899C326.5 538.128 326.026 536.395 325.902 534.624C325.358 527.632 330.089 521.323 331.589 514.424C332.265 511.317 332.265 508.1 332.746 504.962C334.052 496.362 338.791 488.647 340.616 480.14C340.87 478.554 341.266 476.994 341.797 475.478C343.157 472.184 346.303 469.512 346.373 465.946C346.416 465.161 346.21 464.383 345.783 463.724C345.05 462.92 344.077 462.375 343.009 462.17C338.768 461.011 334.451 460.15 330.089 459.591C328.1 459.2 326.069 459.059 324.045 459.171C321.416 459.48 318.889 460.372 316.649 461.782C313.712 463.615 315.639 464.058 316.292 466.731Z" fill="black"/>
<path d="M301.088 583.817H294.461L290.126 494.753L289.823 489.688L295.455 487.707L295.836 493.091L301.088 583.817Z" fill="#565661"/>
<path opacity="0.1" d="M295.836 493.091L290.126 494.753L289.823 489.688L295.455 487.707L295.836 493.091Z" fill="black"/>
<path d="M384.239 602.657L373.308 603.978L322.95 489.688L309.369 488.693L285.519 495.654L280.88 631.729H269.949L274.253 490.682L248.08 491.35L201.373 607.621H191.436L240.559 471.734L242.455 466.497L315.662 463.988L333.912 474.22L334.145 474.81L384.239 602.657Z" fill="#565661"/>
<path opacity="0.1" d="M334.145 474.81C318.413 479.549 302.082 484.723 302.082 484.723C302.082 484.723 287.189 489.921 280.88 484.723C280.085 484.103 279.196 483.613 278.247 483.271C279.065 483.855 279.949 484.343 280.88 484.723L240.559 471.726L242.447 466.497L315.662 463.988L333.912 474.22L334.145 474.81Z" fill="black"/>
<path d="M259.679 452.257L289.488 445.607C289.488 445.607 360.715 458.861 366.013 464.159C366.013 464.159 309.035 475.75 302.742 479.697C296.45 483.644 259.011 488.033 259.679 452.257Z" fill="white"/>
<path d="M246.86 377.76C244.529 385.148 238.166 391.806 230.421 392.125C229.857 392.191 229.287 392.088 228.782 391.83C227.81 391.224 227.787 389.802 228.183 388.722C228.58 387.642 229.271 386.671 229.38 385.537C229.403 385.305 229.387 385.071 229.333 384.845C229.131 383.921 228.378 383.097 227.492 383.291C228.095 382.809 228.497 382.119 228.619 381.356C228.741 380.594 228.575 379.813 228.152 379.166C227.801 378.769 227.484 378.343 227.204 377.892C226.56 376.571 227.562 375.087 227.981 373.673C228.844 370.566 226.653 367.458 226.474 364.219C226.319 361.321 227.787 358.594 228.152 355.719C228.735 351.058 226.42 346.591 226.148 341.937C225.961 338.69 226.762 335.473 227.655 332.342C228.432 329.545 229.31 326.718 229.364 323.796C229.364 321.675 228.999 319.578 228.898 317.465C228.737 315.533 229.088 313.593 229.916 311.84C230.454 310.809 231.37 310.027 232.472 309.657C235.02 308.802 236.69 310.131 237.063 312.547C237.685 316.657 237.327 320.852 238.143 324.977C238.897 328.835 240.04 332.607 241.554 336.235C242.929 339.513 244.599 342.683 245.656 346.078C246.451 348.876 247.02 351.734 247.357 354.624C248.398 362.385 249.214 370.372 246.86 377.76Z" fill="#6C63FF"/>
<path d="M423.807 565.801C422.824 567.186 421.559 568.348 420.096 569.21C418.633 570.072 417.003 570.616 415.315 570.804C411.943 571.224 408.44 570.377 405.169 571.301C404.662 571.385 404.185 571.592 403.778 571.905C403.371 572.218 403.048 572.627 402.838 573.096C402.757 573.727 402.708 574.363 402.691 574.999C402.31 577.074 399.583 577.54 397.462 577.524L388.714 577.47C386.896 577.47 384.884 577.369 383.579 576.11C382.958 575.423 382.608 574.534 382.594 573.608C382.58 572.682 382.902 571.782 383.501 571.076C383.934 570.928 384.29 570.613 384.491 570.202C384.692 569.792 384.722 569.318 384.573 568.885C384.425 568.452 384.111 568.096 383.7 567.895C383.289 567.694 382.815 567.665 382.382 567.813C382.223 566.671 382.279 565.509 382.546 564.387C382.546 561.139 383.322 555.701 385.607 553.161C388.411 549.999 393.275 545.912 397.509 545.065C398.94 544.794 400.416 544.862 401.816 545.264C403.216 545.666 404.503 546.391 405.573 547.38C407.577 549.245 409.038 552.166 411.788 552.492C413.288 552.679 414.733 551.972 416.216 551.716C417.903 551.498 419.615 551.808 421.119 552.602C422.622 553.397 423.843 554.636 424.615 556.152C424.991 556.92 425.253 557.739 425.392 558.583C425.794 561.103 425.228 563.682 423.807 565.801V565.801Z" fill="#A26565"/>
<path opacity="0.1" d="M423.807 565.801C422.824 567.186 421.559 568.348 420.096 569.21C418.632 570.073 417.003 570.616 415.315 570.804C411.943 571.224 408.44 570.377 405.169 571.301C404.662 571.385 404.184 571.592 403.778 571.905C403.371 572.219 403.048 572.628 402.838 573.096C402.757 573.727 402.708 574.363 402.691 574.999C402.31 577.074 399.583 577.54 397.462 577.524L388.714 577.47C386.896 577.47 384.884 577.369 383.579 576.11C382.958 575.423 382.608 574.534 382.594 573.608C382.58 572.682 382.902 571.782 383.501 571.076C388.551 570.866 393.515 571.076 398.55 570.035C400.593 569.623 402.605 569.079 404.672 568.792C409.147 568.155 413.909 568.699 418.019 566.803C421.445 565.249 423.9 562.087 425.353 558.56C425.773 561.082 425.22 563.67 423.807 565.801V565.801Z" fill="black"/>
<path d="M400.725 553.518C397.617 555.926 393.974 557.806 390.058 558.008C386.143 558.21 381.986 556.455 380.067 553.052C377.263 548.056 379.749 541.111 376.315 536.527C375.243 535.09 373.697 534.072 372.562 532.682C371.428 531.291 370.776 529.201 371.786 527.725C370.566 528.191 369.276 527.01 368.919 525.752C368.561 524.493 368.787 523.141 368.569 521.867C368.002 518.488 364.685 516.32 363.092 513.321C361.499 510.322 361.717 506.43 361.538 502.88C361.141 494.229 357.921 485.947 352.371 479.301C351.314 478.042 349.962 476.76 348.315 476.822C348.603 473.979 346.707 471.26 344.252 469.83C341.797 468.401 338.876 467.919 336.033 467.639C307.342 464.812 277.447 475.478 250.053 466.505C242.432 464.011 235.082 459.839 230.421 453.298C228.605 450.808 227.306 447.981 226.6 444.981C225.894 441.982 225.796 438.871 226.311 435.833V435.724C227.391 430.208 230.304 428.849 235.129 426.332C240.698 423.387 246.52 420.946 252.524 419.037C264.177 415.393 276.724 414.08 288.75 416.753C294.367 418.011 299.782 420.093 305.407 421.313C307.621 421.795 309.851 422.136 312.096 422.424C315.585 422.859 319.088 423.146 322.6 423.55C333.828 424.843 344.887 427.331 355.587 430.97C359.573 432.322 363.558 433.868 366.984 436.315C369.701 438.285 371.997 440.777 373.739 443.645C375.481 446.513 376.634 449.699 377.131 453.018C377.457 455.302 377.465 457.68 377.962 459.894C378.433 461.755 379.057 463.574 379.826 465.332C386.465 481.745 391.889 498.623 396.056 515.831C396.292 517.109 396.73 518.341 397.353 519.482C398.348 521.09 400.057 522.17 401.059 523.778C403.39 527.57 401.145 532.86 403.211 536.807C403.926 538.174 405.115 539.254 405.829 540.621C408.144 545.05 404.703 550.434 400.725 553.518Z" fill="#454B69"/>
<path opacity="0.1" d="M361.025 464.252C362.13 463.378 363.083 462.328 363.846 461.145C364.611 459.955 364.915 458.526 364.7 457.128C365.003 458.897 364.888 460.712 364.363 462.428C363.838 464.144 362.919 465.713 361.678 467.01C359.728 469.007 356.069 470.965 353.218 470.281C353.622 467.997 359.215 465.806 361.025 464.252Z" fill="black"/>
<path opacity="0.1" d="M312.485 425.531C312.25 426.364 311.812 427.126 311.21 427.747C310.608 428.368 309.86 428.829 309.035 429.09C307.379 429.596 305.644 429.799 303.916 429.688H302.362C281.976 429.237 261.372 424.716 241.461 429.028C239.061 429.522 236.706 430.216 234.422 431.102C231.511 432.249 228.786 433.82 226.334 435.763V435.655C227.414 430.139 230.328 428.779 235.152 426.262C240.717 423.342 246.53 420.925 252.524 419.037C264.177 415.393 276.724 414.08 288.75 416.753C294.367 418.011 299.782 420.093 305.407 421.313C307.621 421.795 309.851 422.136 312.096 422.424C312.532 423.398 312.667 424.48 312.485 425.531V425.531Z" fill="black"/>
<path d="M312.485 424.42C312.252 425.255 311.815 426.018 311.212 426.641C310.61 427.264 309.862 427.726 309.035 427.986C307.379 428.494 305.644 428.694 303.916 428.577H302.362C281.976 428.126 261.373 423.605 241.461 427.917C239.062 428.412 236.708 429.103 234.422 429.983C231.374 431.199 228.531 432.876 225.992 434.955C225.397 433.319 224.804 431.679 224.213 430.038C223.499 428.08 225.767 427.645 226.202 425.889C226.49 424.7 226 423.348 225.752 422.082C225.688 421.772 225.646 421.458 225.627 421.142C225.487 418.337 226.49 416.721 228.789 415.206C235.61 410.7 243.931 407.608 251.716 405.285C255.854 403.977 260.129 403.148 264.457 402.815C270.579 402.458 276.693 403.592 282.652 405.029C289.978 406.839 297.226 409.232 303.721 413.062C306.914 414.942 310.014 417.281 311.716 420.583C312.401 421.737 312.672 423.091 312.485 424.42Z" fill="#A26565"/>
<path opacity="0.1" d="M246.86 377.76C244.529 385.148 238.166 391.806 230.421 392.125C229.857 392.191 229.287 392.088 228.782 391.83C227.81 391.224 227.787 389.802 228.183 388.722C228.58 387.642 229.271 386.671 229.38 385.537C229.403 385.305 229.387 385.071 229.333 384.845C233.443 379.05 237.428 373.192 239.006 366.332C239.325 365.151 239.422 363.92 239.293 362.704C239.083 361.305 238.376 360.039 237.988 358.687C237.304 356.294 237.623 353.761 237.817 351.283C238.632 340.357 236.81 329.396 232.503 319.321C231.454 316.898 230.258 314.443 229.893 311.855C230.43 310.825 231.346 310.042 232.449 309.672C234.997 308.818 236.667 310.146 237.04 312.562C237.662 316.672 237.304 320.868 238.12 324.993C238.874 328.851 240.017 332.622 241.53 336.25C242.906 339.529 244.576 342.698 245.633 346.093C246.428 348.892 246.997 351.75 247.334 354.639C248.398 362.385 249.214 370.372 246.86 377.76Z" fill="black"/>
<path opacity="0.1" d="M312.485 424.421C312.252 425.255 311.815 426.018 311.212 426.641C310.61 427.264 309.862 427.726 309.035 427.987C307.379 428.494 305.644 428.694 303.916 428.577H302.362C295.726 424.169 287.748 422.244 279.832 423.139C277.299 423.442 274.766 424.032 272.234 423.799C267.114 423.333 262.965 419.65 258.405 417.296C253.215 414.734 247.379 413.781 241.644 414.559C235.909 415.337 230.537 417.81 226.218 421.663L225.775 422.051C225.711 421.741 225.67 421.427 225.651 421.111C225.511 418.306 226.513 416.69 228.813 415.175C235.634 410.669 243.954 407.577 251.739 405.254C255.877 403.946 260.153 403.117 264.48 402.784C270.602 402.426 276.716 403.561 282.675 404.998C290.001 406.808 297.25 409.201 303.745 413.031C306.938 414.911 310.038 417.25 311.739 420.552C312.423 421.718 312.686 423.084 312.485 424.421V424.421Z" fill="black"/>
<path d="M329.911 339.319L329.802 339.599C328.062 344.112 324.861 347.927 322.81 352.324C320.223 357.895 319.586 364.141 319.011 370.263C318.513 375.507 318.024 380.782 318.42 386.042C319.415 399 325.746 411.291 327.44 424.001C327.857 426.936 327.964 429.908 327.759 432.865C327.619 434.738 327.277 436.75 326.034 438.133C324.791 439.516 322.375 440.06 321.038 438.731C321.637 437.589 322.243 436.455 322.849 435.313C319.298 432.555 313.953 434.536 309.804 432.811C307.979 432.034 306.518 430.636 304.988 429.385C301.495 426.545 297.469 424.432 293.148 423.17C288.826 421.907 284.296 421.522 279.824 422.035C277.291 422.346 274.758 422.937 272.226 422.704C267.106 422.23 262.957 418.555 258.397 416.201C253.208 413.64 247.372 412.686 241.638 413.463C235.903 414.239 230.531 416.71 226.21 420.559C225.122 421.569 223.662 422.75 222.326 422.113C221.809 421.797 221.392 421.342 221.121 420.8C216.033 412.107 219.777 400.896 225.216 392.428C230.654 383.96 237.856 376.152 240.093 366.363C240.416 365.182 240.514 363.951 240.381 362.735C240.171 361.336 239.464 360.07 239.075 358.718C238.392 356.325 238.71 353.793 238.905 351.314C239.72 340.388 237.897 329.427 233.591 319.353C232.348 316.455 230.871 313.518 230.871 310.372C230.871 305.415 234.422 301.305 237.359 297.32C240.738 292.736 243.574 287.663 247.854 283.895C251.91 280.313 257.783 278.122 262.802 279.94C271.331 277.878 280.109 277.03 288.875 277.423C291.905 277.563 295.036 277.882 297.693 279.35C300.536 280.904 302.579 283.67 305.376 285.324C307.419 286.544 309.773 287.119 311.995 287.974C318.135 290.376 323.2 294.914 326.259 300.754C329.367 306.775 330.144 313.697 330.827 320.44C331.496 326.741 332.117 333.345 329.911 339.319Z" fill="#6C63FF"/>
<path opacity="0.1" d="M318.42 386.042C319.415 399 325.746 411.291 327.44 424.001C324.053 421.111 319.353 418.252 318.708 414.919C318.009 411.314 315.771 406.591 315.398 402.947C315.025 399.303 317.581 394.852 314.901 392.35C313.596 391.13 317.068 391.472 315.794 390.221C312.928 387.432 312.221 383.136 312.042 379.151C311.739 372.096 312.632 364.964 311.335 358.027C310.558 353.746 308.934 349.667 307.637 345.511C306.13 340.671 305.042 335.714 303.954 330.75C302.884 326.336 302.105 321.856 301.624 317.34C301.29 313.456 301.445 309.338 303.178 305.796C304.91 302.253 308.414 299.378 312.345 299.433C325.49 299.604 323.222 317.426 326.112 325.661C327.269 328.939 328.831 332.109 329.46 335.528C329.69 336.868 329.814 338.224 329.833 339.583C328.093 344.097 324.892 347.911 322.841 352.309C320.254 357.879 319.617 364.125 319.042 370.247C318.514 375.507 318.024 380.782 318.42 386.042Z" fill="black"/>
<path d="M326.966 325.459C328.124 328.738 329.685 331.907 330.315 335.326C331.363 341.051 329.74 347.135 331.503 352.682C331.962 353.866 332.346 355.077 332.653 356.31C332.956 358.073 332.606 359.876 332.606 361.67C332.606 364.56 333.515 367.357 334.323 370.131C337.055 379.553 338.864 389.22 339.723 398.993C339.851 401.619 340.265 404.224 340.958 406.762C341.284 407.621 341.564 408.498 341.797 409.388C342.006 410.575 342.055 411.784 341.945 412.985C341.735 416.791 341.308 420.614 341.735 424.405C342.162 428.196 343.545 432.042 346.396 434.582C343.848 435.134 341.152 435.686 338.666 434.87C335.17 433.728 333.073 430.208 331.294 427.008C329.04 422.921 320.479 419.239 319.593 414.647C318.902 411.05 316.664 406.327 316.292 402.675C315.919 399.024 318.467 394.588 315.787 392.086C314.489 390.866 317.962 391.2 316.68 389.957C313.821 387.168 313.114 382.872 312.935 378.879C312.632 371.832 313.518 364.7 312.228 357.762C311.451 353.482 309.828 349.403 308.53 345.239C307.023 340.407 305.935 335.45 304.848 330.478C303.774 326.065 302.996 321.585 302.517 317.068C302.183 313.184 302.331 309.059 304.071 305.516C305.811 301.973 309.315 299.107 313.238 299.153C326.329 299.394 324.076 317.224 326.966 325.459Z" fill="#6C63FF"/>
<path opacity="0.1" d="M289.504 328.497C290.732 329.934 292.309 331.511 294.165 331.231C294.024 331.455 293.802 331.614 293.544 331.675C293.287 331.736 293.017 331.694 292.79 331.558C292.345 331.262 291.987 330.851 291.757 330.369L289.1 325.886C288.75 325.304 286.342 321.909 285.752 323.866C285.519 324.698 288.906 327.797 289.504 328.497Z" fill="black"/>
<path opacity="0.1" d="M288.075 339.676C287.998 338.212 287.381 336.827 286.342 335.792C285.408 334.945 284.318 334.288 283.133 333.857C280.22 332.661 276.771 331.697 273.609 331.853C274.758 333.531 278.449 334.533 280.298 335.481C282.919 336.833 285.511 338.231 288.075 339.676Z" fill="black"/>
<path opacity="0.1" d="M296.349 371.498C295.812 375.476 292.557 378.49 289.263 380.821C285.969 383.152 282.271 385.156 280.119 388.528C278.627 390.858 277.959 393.562 276.693 395.994C275.295 398.674 273.205 400.927 271.534 403.444C269.864 405.961 268.559 408.968 269.072 411.951C269.079 412.089 269.114 412.223 269.176 412.346C269.237 412.469 269.324 412.578 269.429 412.666C269.589 412.734 269.764 412.759 269.936 412.74C270.109 412.721 270.274 412.658 270.416 412.557C273.803 410.786 275.139 406.738 276.561 403.234C278.053 399.698 279.734 396.243 281.595 392.886C282.434 391.332 283.359 389.639 284.92 388.776C285.99 388.331 287.084 387.95 288.199 387.634C289.78 386.909 291.167 385.82 292.247 384.457C296.488 379.397 298.702 372.945 298.462 366.347C298.415 364.957 298.337 358.26 296.248 360.326C294.158 362.393 296.706 368.794 296.349 371.498Z" fill="black"/>
<path d="M301.468 218.938C308.15 221.852 313.899 228.261 313.689 235.525C313.51 243.154 307.124 250.341 309.323 257.651C310.597 261.893 314.435 264.736 317.472 267.961C329.04 280.205 329.017 301.577 317.41 313.798C312.966 318.459 307.256 321.776 302.556 326.228C285.985 341.844 285.278 368.857 294.15 389.825C287.352 391.295 280.423 392.076 273.469 392.156C270.214 392.195 266.228 391.604 265.047 388.567C263.96 385.762 265.824 381.971 263.68 379.896C262.67 378.925 261.155 378.793 259.795 378.568C251.047 377.154 243.869 370.17 240.59 361.942C237.312 353.715 237.483 344.454 239.363 335.8C240.699 329.545 242.789 322.662 239.689 317.068C235.805 310.03 224.633 307.062 224.804 299.013C224.944 292.417 232.72 289.209 237.133 284.307C245.275 275.279 241.398 261.272 241.383 249.105C241.383 238.4 245.127 227.352 253.098 220.22C264.954 209.522 287.787 212.995 301.468 218.938Z" fill="#A26565"/>
<g opacity="0.1">
<path opacity="0.1" d="M240.963 309.09C237.553 302.937 228.595 299.891 226.513 293.839C225.471 295.252 224.886 296.948 224.835 298.703C224.664 306.751 235.82 309.719 239.72 316.765C241.001 319.26 241.54 322.069 241.274 324.861C242.502 319.454 243.581 313.813 240.963 309.09Z" fill="black"/>
<path opacity="0.1" d="M310.216 247.691C311.615 243.613 313.642 239.495 313.743 235.261C313.757 234.802 313.745 234.343 313.704 233.886C312.143 238.539 309.75 243.1 310.216 247.691Z" fill="black"/>
<path opacity="0.1" d="M242.3 269.421C244.972 260.976 242.665 250.504 242.657 241.134C242.657 240 242.704 238.858 242.789 237.724C241.869 241.345 241.404 245.066 241.406 248.802C241.422 255.491 242.595 262.748 242.3 269.421Z" fill="black"/>
<path opacity="0.1" d="M318.708 305.85C314.264 310.511 308.554 313.829 303.853 318.28C295.463 326.181 291.151 337.004 290.071 348.479C292.076 339.933 296.123 332.063 302.61 325.948C307.272 321.52 313.021 318.218 317.465 313.518C322.751 307.757 325.82 300.307 326.127 292.495C324.785 297.487 322.238 302.073 318.708 305.85Z" fill="black"/>
<path opacity="0.1" d="M274.766 384.185C271.511 384.185 267.526 383.625 266.345 380.588C265.257 377.791 267.122 374 264.977 371.918C263.967 370.947 262.445 370.814 261.093 370.589C252.353 369.183 245.174 362.191 241.896 353.971C239.479 347.896 238.959 341.269 239.565 334.727C239.503 334.984 239.448 335.24 239.394 335.504C237.545 344.159 237.351 353.427 240.621 361.655C243.892 369.882 251.079 376.866 259.819 378.273C261.202 378.498 262.724 378.638 263.703 379.601C265.871 381.683 263.983 385.475 265.071 388.271C266.251 391.309 270.237 391.907 273.492 391.868C280.447 391.788 287.375 391.007 294.173 389.538C293.214 387.271 292.377 384.955 291.664 382.6C286.084 383.592 280.433 384.122 274.766 384.185V384.185Z" fill="black"/>
</g>
<path opacity="0.1" d="M300.21 350.304C302.129 351.749 304.211 346.241 303.022 344.866C302.704 345.223 299.915 350.102 300.21 350.304Z" fill="black"/>
<path opacity="0.1" d="M308.391 450.012C310.651 449.235 313.052 448.458 314.528 446.593C315.748 445.094 316.75 439.143 314.171 441.994C311.98 444.426 310.947 447.665 308.391 450.012Z" fill="black"/>
<path opacity="0.1" d="M331.41 443.773C331.138 445.607 330.633 447.51 329.336 448.831C329.095 449.079 328.559 449.235 328.489 448.901C329.938 448.129 331.285 447.179 332.498 446.073C335.124 443.47 335.481 437.061 331.48 435.359C331.441 438.172 331.837 440.945 331.41 443.773Z" fill="black"/>
<path d="M359.044 432.221C359.044 432.221 336.996 423.558 329.025 424.452C321.054 425.345 338.052 437.908 338.052 437.908L348.214 444.76C348.214 444.76 354.43 442.429 354.841 442.25C355.253 442.072 359.044 432.221 359.044 432.221Z" fill="#454B69"/>
<path d="M207.339 339.288C207.339 339.288 223.903 329.685 245.765 341.619C267.627 353.552 271.27 423.776 271.27 423.776C271.27 423.776 262.328 495.328 296.807 479.417C296.807 479.417 359.736 459.878 366.036 464.182C366.036 464.182 372.003 464.182 360.078 466.832C348.152 469.481 302.105 484.055 302.105 484.055C302.105 484.055 287.212 489.261 280.904 484.055C274.595 478.85 256.719 484.723 254.396 448.939C252.859 426.39 250.094 403.94 246.114 381.691L239.969 363.473L207.339 339.288Z" fill="#565661"/>
<path d="M205.35 449.934C205.35 449.934 212.638 377.387 200.689 351.213C190.294 328.403 230.491 339.07 240.979 342.178C242.602 342.663 244.018 343.674 245.003 345.052C251.218 353.793 273.515 388.823 266.943 435.693C266.943 435.693 264.294 477.436 280.857 484.055L229.823 467.616C225.682 466.28 221.479 465.169 217.237 464.206C211.83 462.978 203.02 459.49 205.35 449.934Z" fill="white"/>
<path d="M518.115 320.145C518.115 320.145 514.549 336.755 530.421 338.721L531.407 336.879C531.407 336.879 519.101 325.311 518.115 320.145Z" fill="#6C63FF"/>
<path d="M536.449 336.747L532.759 337.524L532.394 337.61C532.394 337.61 522.543 329.615 522.667 311.77C523.976 314.396 525.537 316.889 527.329 319.213C531.275 324.41 535.711 331.27 536.449 336.747Z" fill="#6C63FF"/>
<path d="M537.7 338.464C537.409 338.652 537.079 338.773 536.735 338.817C536.391 338.862 536.041 338.829 535.711 338.721C526.233 336.507 529.442 305.632 529.442 305.632C529.962 305.873 530.537 309.797 532.713 314.87C536.543 323.781 540.754 336.227 537.7 338.464Z" fill="#6C63FF"/>
<path d="M558.715 320.145C558.715 320.145 559.329 336.755 543.457 338.721L542.478 336.879C542.478 336.879 557.729 325.311 558.715 320.145Z" fill="#6C63FF"/>
<path d="M554.163 311.778C554.287 329.623 541.53 337.618 541.53 337.618L541.165 337.532L537.475 336.755C538.205 331.278 542.649 324.387 546.541 319.228C548.738 316.416 551.301 313.91 554.163 311.778Z" fill="#6C63FF"/>
<path d="M541.064 336.841C540.493 337.534 539.77 338.086 538.951 338.457C538.702 338.569 538.441 338.655 538.174 338.713C535.843 339.257 535.067 337.579 535.16 334.72C535.377 329.631 538.578 320.813 541.445 314.217C543.511 309.463 546.883 305.858 547.396 305.625C547.396 305.632 547.256 329.67 541.064 336.841Z" fill="#6C63FF"/>
<path d="M538.423 294.803C538.423 294.803 527.841 332.327 536.947 337.983C546.052 343.638 540.753 298.12 538.423 294.803Z" fill="#6C63FF"/>
<path opacity="0.1" d="M518.115 320.145C518.115 320.145 514.549 336.755 530.421 338.721L531.407 336.879C531.407 336.879 519.101 325.311 518.115 320.145Z" fill="black"/>
<path opacity="0.1" d="M536.449 336.747L532.759 337.524L532.394 337.61C532.394 337.61 522.543 329.615 522.667 311.77C523.976 314.396 525.537 316.889 527.329 319.213C531.275 324.41 535.711 331.27 536.449 336.747Z" fill="black"/>
<path opacity="0.1" d="M537.7 338.464C537.409 338.652 537.079 338.773 536.735 338.817C536.391 338.862 536.041 338.829 535.711 338.721C526.233 336.507 529.442 305.632 529.442 305.632C529.962 305.873 530.537 309.797 532.713 314.87C536.543 323.781 540.754 336.227 537.7 338.464Z" fill="black"/>
<path opacity="0.1" d="M558.715 320.145C558.715 320.145 559.329 336.755 543.457 338.721L542.478 336.879C542.478 336.879 557.729 325.311 558.715 320.145Z" fill="black"/>
<path opacity="0.1" d="M554.163 311.778C554.287 329.623 541.53 337.618 541.53 337.618L541.165 337.532L537.475 336.755C538.205 331.278 542.649 324.387 546.541 319.228C548.738 316.416 551.301 313.91 554.163 311.778Z" fill="black"/>
<path opacity="0.1" d="M541.064 336.841C540.493 337.534 539.77 338.086 538.951 338.457C538.702 338.569 538.441 338.655 538.174 338.713C535.843 339.257 535.067 337.579 535.16 334.72C535.377 329.631 538.578 320.813 541.445 314.217C543.511 309.463 546.883 305.858 547.396 305.625C547.396 305.632 547.256 329.67 541.064 336.841Z" fill="black"/>
<path opacity="0.1" d="M538.423 294.803C538.423 294.803 527.841 332.327 536.947 337.983C546.052 343.638 540.753 298.12 538.423 294.803Z" fill="black"/>
<path d="M518.115 320.145C518.115 320.145 516.025 336.755 531.897 338.721L532.883 336.879C532.883 336.879 519.101 325.311 518.115 320.145Z" fill="#6C63FF"/>
<path d="M537.926 336.747L534.235 337.524L533.87 337.61C533.87 337.61 522.543 329.615 522.667 311.77C522.667 311.77 525.573 314.878 528.844 319.213C532.751 324.41 537.187 331.27 537.926 336.747Z" fill="#6C63FF"/>
<path opacity="0.1" d="M537.926 336.747L534.235 337.524C530.739 334.455 529.349 326.438 528.844 319.213C532.751 324.41 537.188 331.27 537.926 336.747Z" fill="black"/>
<path d="M539.2 338.464C538.908 338.652 538.578 338.773 538.234 338.817C537.89 338.862 537.541 338.829 537.211 338.721C527.733 336.507 529.442 305.632 529.442 305.632C529.962 305.873 532.013 309.797 534.189 314.87C538.019 323.781 542.214 336.227 539.2 338.464Z" fill="#6C63FF"/>
<path d="M558.715 320.145C558.715 320.145 560.805 336.755 544.933 338.721L543.954 336.879C543.954 336.879 557.729 325.311 558.715 320.145Z" fill="#6C63FF"/>
<path d="M554.163 311.778C554.287 329.647 542.968 337.618 542.968 337.618L542.603 337.532L538.912 336.755C539.643 331.278 544.086 324.387 547.979 319.228C551.265 314.885 554.163 311.778 554.163 311.778Z" fill="#6C63FF"/>
<path opacity="0.1" d="M547.979 319.22C547.505 325.956 546.277 333.376 543.317 336.848C543.108 337.091 542.882 337.32 542.641 337.532L538.951 336.755C539.643 331.27 544.086 324.41 547.979 319.22Z" fill="black"/>
<path d="M542.54 336.841C541.969 337.534 541.246 338.086 540.427 338.457C540.178 338.569 539.918 338.655 539.65 338.713C537.32 339.257 536.504 337.579 536.636 334.72C536.853 329.631 540.054 320.813 542.921 314.217C544.988 309.463 546.899 305.858 547.396 305.625C547.396 305.632 548.732 329.67 542.54 336.841Z" fill="#6C63FF"/>
<path opacity="0.1" d="M539.2 338.464C538.662 338.462 538.138 338.294 537.7 337.983C533.241 335.209 533.155 324.775 534.212 314.87C538.019 323.781 542.214 336.227 539.2 338.464Z" fill="black"/>
<path opacity="0.1" d="M542.54 336.841C542.028 337.944 541.336 338.534 540.427 338.457C539.974 338.393 539.541 338.228 539.161 337.975C538.003 337.179 537.123 336.041 536.644 334.72C536.861 329.631 540.062 320.813 542.929 314.217C543.947 323.385 544.288 333.088 542.54 336.841Z" fill="black"/>
<path d="M538.423 294.803C538.423 294.803 529.318 332.327 538.423 337.983C547.528 343.638 540.754 298.12 538.423 294.803Z" fill="#6C63FF"/>
<path d="M552.694 339.832L552.057 343.149L549.742 355.331H527.709L525.394 343.149L524.757 339.832H552.694Z" fill="#565661"/>
<path opacity="0.1" d="M552.694 339.832L552.057 343.149H525.394L524.757 339.832H552.694Z" fill="black"/>
<path d="M557.364 336.141H519.474V342.419H557.364V336.141Z" fill="#565661"/>
<path d="M429.447 348.191L408.681 349.861L379.088 347.935L379.601 347.888L407.01 345.247C413.288 342.916 408.937 329.359 408.937 329.359L429.913 330.431L431.584 330.517C439.05 347.935 429.447 348.191 429.447 348.191Z" fill="#D1D9EC"/>
<path opacity="0.1" d="M429.447 348.191L408.681 349.861L379.088 347.935L379.601 347.888L409.512 348.96L429.556 346.785C435.243 345.285 431.988 335.411 429.937 330.431L431.607 330.517C439.05 347.935 429.447 348.191 429.447 348.191Z" fill="black"/>
<path d="M465.783 224.819L459.435 315.864L458.604 327.821C458.511 329.137 457.921 330.368 456.952 331.265C455.984 332.161 454.711 332.654 453.391 332.645H451.464L355.906 332.063C355.533 332.06 355.165 331.98 354.825 331.827C354.485 331.674 354.181 331.452 353.931 331.175C353.682 330.898 353.493 330.572 353.377 330.218C353.261 329.864 353.22 329.489 353.256 329.118L354.08 321.046L360.8 254.963C360.907 253.917 361.31 252.924 361.96 252.099C362.611 251.273 363.483 250.65 364.475 250.302L455.551 218.767C458.659 217.695 461.766 218.076 463.778 219.715C464.507 220.335 465.071 221.126 465.42 222.016C465.77 222.906 465.894 223.869 465.783 224.819Z" fill="#4C4C56"/>
<path d="M459.435 315.864L458.604 327.821C458.511 329.137 457.921 330.368 456.952 331.265C455.984 332.161 454.711 332.654 453.391 332.645H451.464L355.906 332.063C355.533 332.06 355.165 331.98 354.825 331.827C354.485 331.674 354.181 331.452 353.931 331.175C353.682 330.898 353.493 330.572 353.377 330.218C353.261 329.864 353.22 329.489 353.256 329.118L354.08 321.046L459.435 315.864Z" fill="#DFE6F5"/>
<path d="M395.372 328.341C396.08 328.341 396.654 327.193 396.654 325.778C396.654 324.362 396.08 323.214 395.372 323.214C394.664 323.214 394.09 324.362 394.09 325.778C394.09 327.193 394.664 328.341 395.372 328.341Z" fill="white"/>
<path d="M442.149 351.19C442.149 351.19 468.284 341.323 475.331 348.502C475.331 348.502 476.481 350.677 471.741 351.19L452.591 352.744C452.591 352.744 444.713 353.497 442.149 351.19Z" fill="#D1D9EC"/>
<path d="M442.864 348.626C447.999 346.529 463.452 341.098 473.342 347.072C473.342 347.072 462.395 345.86 456.39 349.333C450.384 352.806 442.165 351.159 442.165 351.159L442.048 350.941C441.938 350.738 441.872 350.514 441.853 350.283C441.835 350.053 441.865 349.821 441.942 349.603C442.019 349.385 442.141 349.185 442.3 349.017C442.458 348.849 442.651 348.715 442.864 348.626V348.626Z" fill="#DFE6F5"/>
<path d="M465.783 224.819L458.604 327.836C458.511 329.152 457.921 330.384 456.952 331.28C455.984 332.176 454.711 332.67 453.391 332.661H451.464C452.788 331.397 453.914 329.941 454.805 328.341C454.805 328.341 461.852 224.843 462.364 222.279C462.593 221.319 463.085 220.442 463.786 219.746C464.508 220.364 465.068 221.15 465.416 222.034C465.764 222.919 465.89 223.875 465.783 224.819V224.819Z" fill="#DFE6F5"/>
<path opacity="0.1" d="M465.783 224.819L458.604 327.836C458.511 329.152 457.921 330.384 456.952 331.28C455.984 332.176 454.711 332.67 453.391 332.661H451.464C452.788 331.397 453.914 329.941 454.805 328.341C454.805 328.341 461.852 224.843 462.364 222.279C462.593 221.319 463.085 220.442 463.786 219.746C464.508 220.364 465.068 221.15 465.416 222.034C465.764 222.919 465.89 223.875 465.783 224.819V224.819Z" fill="black"/>
<path opacity="0.1" d="M115.735 579.35C157.543 579.35 191.436 573.906 191.436 567.191C191.436 560.477 157.543 555.033 115.735 555.033C73.9262 555.033 40.0337 560.477 40.0337 567.191C40.0337 573.906 73.9262 579.35 115.735 579.35Z" fill="#6C63FF"/>
<path d="M118.167 334.269H113.295V443.944H118.167V334.269Z" fill="#535461"/>
<path d="M148.784 443.61L148.481 448.551L148.046 455.543L147.867 458.449L147.44 465.441L147.254 468.346L146.819 475.339L141.909 554.637C141.695 558.049 140.19 561.251 137.699 563.592C135.207 565.933 131.918 567.237 128.499 567.238H102.963C99.5456 567.237 96.2579 565.932 93.7692 563.591C91.2806 561.249 89.7784 558.047 89.5688 554.637L84.6433 475.284L84.216 468.292L84.0373 465.386L83.5945 458.394L83.4158 455.489L82.9885 448.497L82.6777 443.556C82.6239 442.608 82.7635 441.66 83.0878 440.769C83.4121 439.877 83.9144 439.061 84.5641 438.37C85.2138 437.679 85.9974 437.127 86.8671 436.749C87.7369 436.37 88.6746 436.172 89.6232 436.167H141.846C142.799 436.173 143.741 436.373 144.614 436.755C145.486 437.138 146.272 437.695 146.921 438.392C147.571 439.089 148.071 439.911 148.392 440.808C148.712 441.706 148.846 442.659 148.784 443.61Z" fill="#565661"/>
<path d="M148.481 448.551L148.046 455.52H83.4235L82.9885 448.551H148.481Z" fill="#9D9CB5"/>
<path d="M147.867 458.433L147.44 465.41H84.0373L83.6022 458.433H147.867Z" fill="#9D9CB5"/>
<path d="M147.254 468.315L146.819 475.284H84.6432L84.216 468.315H147.254Z" fill="#9D9CB5"/>
<path d="M75.5457 375.375C103.918 395.9 115.735 428.002 115.735 428.002C115.735 428.002 81.5512 426.829 53.171 406.303C24.7909 385.777 12.9897 353.684 12.9897 353.684C12.9897 353.684 47.1811 354.857 75.5457 375.375Z" fill="#6C63FF"/>
<path d="M12.9897 353.684C12.9897 353.684 48.4708 373.355 59.8524 389.67C71.2339 405.985 115.727 427.986 115.727 427.986" stroke="#535461" stroke-width="1.5538" stroke-miterlimit="10"/>
<path d="M93.8573 334.028C109.302 345.192 115.735 362.672 115.735 362.672C115.735 362.672 97.0892 362.028 81.6833 350.864C66.2773 339.7 59.8524 322.219 59.8524 322.219C59.8524 322.219 78.4203 322.856 93.8573 334.028Z" fill="#6C63FF"/>
<path d="M59.8524 322.219C59.8524 322.219 79.1661 332.941 85.358 341.813C91.5499 350.685 115.774 362.672 115.774 362.672" stroke="#535461" stroke-width="1.5538" stroke-miterlimit="10"/>
<path d="M138.172 361.779C120.451 381.271 116.683 406.762 116.683 406.762C116.683 406.762 141.691 400.624 159.412 381.124C177.133 361.624 180.901 336.157 180.901 336.157C180.901 336.157 155.908 342.279 138.172 361.779Z" fill="#6C63FF"/>
<path d="M180.917 336.149C180.917 336.149 157.812 356.131 151.938 369.898C146.065 383.664 116.683 406.762 116.683 406.762" stroke="#535461" stroke-width="1.5538" stroke-miterlimit="10"/>
</g>
<defs>
<linearGradient id="paint0_linear" x1="233.559" y1="143.206" x2="234.616" y2="143.206" gradientUnits="userSpaceOnUse">
<stop stop-color="#808080" stop-opacity="0.25"/>
<stop offset="0.54" stop-color="#808080" stop-opacity="0.12"/>
<stop offset="1" stop-color="#808080" stop-opacity="0.1"/>
</linearGradient>
<linearGradient id="paint1_linear" x1="2252.95" y1="333.284" x2="2299.13" y2="333.284" gradientUnits="userSpaceOnUse">
<stop stop-color="#808080" stop-opacity="0.25"/>
<stop offset="0.54" stop-color="#808080" stop-opacity="0.12"/>
<stop offset="1" stop-color="#808080" stop-opacity="0.1"/>
</linearGradient>
<linearGradient id="paint2_linear" x1="1155.27" y1="1313.5" x2="1159.45" y2="1313.5" gradientUnits="userSpaceOnUse">
<stop stop-color="#808080" stop-opacity="0.25"/>
<stop offset="0.54" stop-color="#808080" stop-opacity="0.12"/>
<stop offset="1" stop-color="#808080" stop-opacity="0.1"/>
</linearGradient>
<clipPath id="clip0">
<rect width="877.959" height="631.729" fill="white"/>
</clipPath>
</defs>
</svg>
