<svg height="512" viewBox="0 0 48 60" width="512" xmlns="http://www.w3.org/2000/svg"><g id="035---Creative-Writing" fill="none"><g id="Icons" transform="translate(1 7)"><rect id="Rectangle-path" fill="#dfc49c" height="41" rx="3" width="34" y="11"/><rect id="Rectangle-path" fill="#ffe0b2" height="41" rx="3" width="31" y="11"/><path id="Shape" d="m21 15v4h-8c0-3.517.007-3.879-.01-4z" fill="#9e9e9e"/><path id="Shape" d="m22.37 11.49c-.8575603.9710628-1.3429924 2.2147613-1.37 3.51h-8.01c-.0767791-1.3244342-.5821958-2.5879758-1.44-3.6-2.31681257-2.87024654-2.0087889-7.04582185.7041179-9.54503627 2.7129067-2.49921441 6.8996829-2.4643891 9.5706406.07960792 2.6709576 2.54399702 2.9094792 6.72411845.5452415 9.55542835z" fill="#ffdc00"/><path id="Shape" d="m21 19v2c-.0032948 1.1032019-.8967981 1.9967052-2 2h-4c-1.1032019-.0032948-1.9967052-.8967981-2-2v-2z" fill="#707070"/><path id="Shape" d="m19 23v2c0 1.1045695-.8954305 2-2 2s-2-.8954305-2-2v-2z" fill="#37474f"/><path id="Shape" d="m22.37 11.49c-.8575603.9710628-1.3429924 2.2147613-1.37 3.51h-3c.0270076-1.2952387.5124397-2.5389372 1.37-3.51 1.5643688-1.88064327 2.0353941-4.44068763 1.2428559-6.75498067-.7925381-2.31429304-2.7340297-4.04816216-5.1228559-4.57501933 2.9224956-.63237552 5.9244809.65808567 7.4764697 3.21390452 1.5519889 2.55581886 1.3124917 5.81462948-.5964697 8.11609548z" fill="#fec108"/><path id="Shape" d="m40.59 27.49-16.27 16.27-5.65-5.66 16.26-16.26z" fill="#02a9f4"/><path id="Shape" d="m24.32 43.76c-8.1 3.47-9.72 4.12-9.89 4.23l4.24-9.89z" fill="#9e9e9e"/><path id="Shape" d="m44.83 23.25-4.24 4.24-5.66-5.65 4.24-4.25c1.0110616-1.0110616 2.484716-1.4059261 3.8658519-1.0358519 1.3811358.3700742 2.4599258 1.4488642 2.83 2.83.3700742 1.3811359-.0247903 2.8547903-1.0358519 3.8658519z" fill="#02a9f4"/><path id="Shape" d="m40.59 27.49-16.27 16.27-1.99-2 16.26-16.26z" fill="#0377bc"/><path id="Shape" d="m24.32 43.76c-8.1 3.47-9.72 4.12-9.89 4.23l1.5-3.49c1.47-.63 3.52-1.51 6.39-2.73z" fill="#707070"/><path id="Shape" d="m44.83 23.25-4.24 4.24-2-1.99 4.24-4.24c1.1763728-1.1790602 1.4990361-2.9636672.81-4.48 1.1969364.5394575 2.0529451 1.6319377 2.2904352 2.9231657.2374902 1.291228-.1737775 2.616793-1.1004352 3.5468343z" fill="#0377bc"/></g><g id="Outline" fill="#000"><path id="Shape" d="m10.591 17h-6.591c-2.209139 0-4 1.790861-4 4v35c0 2.209139 1.790861 4 4 4h28c2.209139 0 4-1.790861 4-4v-9.27c0-.5522847-.4477153-1-1-1s-1 .4477153-1 1v9.27c0 1.1045695-.8954305 2-2 2h-28c-1.1045695 0-2-.8954305-2-2v-35c0-1.1045695.8954305-2 2-2h7.755c.7716778.8911333 1.2115235 2.0216603 1.245 3.2v5.8c.0052514 1.2667854.8056491 2.3937454 2 2.816 0 1.277-.131 2.313.874 3.292.8558384.859637 2.1451412 1.1192853 3.2670094.6579318 1.1218681-.4613535 1.855506-1.5529095 1.8589906-2.7659318v-1.184c1.1943509-.4222546 1.9947486-1.5492146 2-2.816v-5.99c.0353432-1.1199764.4751315-2.1892516 1.238-3.01h7.762c1.1045695 0 2 .8954305 2 2 0 .5522847.4477153 1 1 1 2.092 0 .814-5-3-5h-6.583c1.3559973-3.3418748.3082841-7.17786207-2.5582345-9.36645219-2.8665187-2.18859012-6.8430123-2.18859012-9.709531 0-2.8665186 2.18859012-3.91423179 6.02457739-2.5582345 9.36645219zm10.409 6v2h-6v-2zm-3 10c-.5504721-.0043518-.9956482-.4495279-1-1v-1h2v1c0 .5522847-.4477153 1-1 1zm3-5c0 .5522847-.4477153 1-1 1h-4c-.5522847 0-1-.4477153-1-1v-1h6zm-7-18.475c2.3431637-2.11047808 5.9201966-2.04690493 8.1868869.14550221 2.2666903 2.19240709 2.4493732 5.76533769.4181131 8.17749779-.7723382.8985936-1.2917621 1.9864502-1.505 3.152h-2.1v-5c0-.5522847-.4477153-1-1-1s-1 .4477153-1 1v5h-2.12c-.625-3.231-2.88-3.538-2.88-7 .0003295-1.7081281.7275997-3.3353951 2-4.475z"/><path id="Shape" d="m19 3v-2c0-.55228475-.4477153-1-1-1s-1 .44771525-1 1v2c0 .55228475.4477153 1 1 1s1-.44771525 1-1z"/><path id="Shape" d="m29 15h2c.5522847 0 1-.4477153 1-1s-.4477153-1-1-1h-2c-.5522847 0-1 .4477153-1 1s.4477153 1 1 1z"/><path id="Shape" d="m7 13h-2c-.55228475 0-1 .4477153-1 1s.44771525 1 1 1h2c.55228475 0 1-.4477153 1-1s-.44771525-1-1-1z"/><path id="Shape" d="m27.9 22.485-1.414-1.414c-.2510745-.2599566-.6228779-.3642126-.9725073-.2726972-.3496295.0915155-.6226744.3645604-.7141899.7141899-.0915154.3496294.0127406.7214328.2726972.9725073l1.413 1.415c.3907415.3907414 1.0242585.3907414 1.415 0 .3907414-.3907415.3907414-1.0242585 0-1.415z"/><path id="Shape" d="m9.515 6.929c.25107447.25995658.6228779.3642126.9725073.27269716.3496295-.09151544.6226744-.3645604.7141899-.71418984.0915154-.34962943-.0127406-.72143285-.2726972-.97250732l-1.414-1.415c-.2527654-.2527654-.62117901-.35148153-.96646297-.25896297-.34528397.09251856-.61498144.36221603-.7075.7075-.09251856.34528396.00619757.71369757.25896297.96646297z"/><path id="Shape" d="m9.515 23.9 1.414-1.414c.2599566-.2510745.3642126-.6228779.2726972-.9725073-.0915155-.3496295-.3645604-.6226744-.7141899-.7141899-.3496294-.0915154-.72143283.0127406-.9725073.2726972l-1.415 1.413c-.25276541.2527654-.35148154.621179-.25896299.966463.09251856.3452839.36221604.6149814.70750001.7075.34528397.0925185.71369758-.0061976.96646298-.258963z"/><path id="Shape" d="m26.485 4.1-1.414 1.415c-.3789722.39237889-.3735524 1.01608478.0121814 1.40181858.3857338.38573379 1.0094397.39115363 1.4018186.01218142l1.415-1.414c.2527654-.2527654.3514816-.62117901.258963-.96646299-.0925186-.34528397-.362216-.61498146-.7075-.70750001-.345284-.09251856-.7136976.00619758-.966463.258963z"/><path id="Shape" d="m5 27c0 .5522847.44771525 1 1 1h4c.5522847 0 1-.4477153 1-1s-.4477153-1-1-1h-4c-.55228475 0-1 .4477153-1 1z"/><path id="Shape" d="m27 26h-1c-.5522847 0-1 .4477153-1 1s.4477153 1 1 1h1c.5522847 0 1-.4477153 1-1s-.4477153-1-1-1z"/><path id="Shape" d="m6 33h4c.5522847 0 1-.4477153 1-1s-.4477153-1-1-1h-4c-.55228475 0-1 .4477153-1 1s.44771525 1 1 1z"/><path id="Shape" d="m6 43h11.11c.5522847 0 1-.4477153 1-1s-.4477153-1-1-1h-11.11c-.55228475 0-1 .4477153-1 1s.44771525 1 1 1z"/><path id="Shape" d="m15.5 47c0-.5522847-.4477153-1-1-1h-8.5c-.55228475 0-1 .4477153-1 1s.44771525 1 1 1h8.5c.5522847 0 1-.4477153 1-1z"/><path id="Shape" d="m6 51c-.55228475 0-1 .4477153-1 1s.44771525 1 1 1h6.36c.5522847 0 1-.4477153 1-1s-.4477153-1-1-1z"/><path id="Shape" d="m6 38h16.11c.5522847 0 1-.4477153 1-1s-.4477153-1-1-1h-16.11c-.55228475 0-1 .4477153-1 1s.44771525 1 1 1z"/><path id="Shape" d="m43 22.423c-2.389 0-3.436 1.365-4.95 2.879l-.707-.707c-1.1714996-1.1711458-3.0705004-1.1711458-4.242 0l-6.364 6.363c-.3907414.3904653-.3909653 1.0237585-.0005 1.4145.3904653.3907414 1.0237585.3909653 1.4145.0005l6.364-6.364c.3904999-.3903819 1.0235001-.3903819 1.414 0l.707.707c-18.829 18.827-17.767 17.7-17.9 18.008-.4.805 1.431-3.34-4.235 9.882-.1326502.3094381-.1006893.664855.0850388.945663s.5002906.4493104.8369612.448337c.293 0-.475.288 10.293-4.324.406-.174.229-.123 20.819-20.718 1.4213966-1.4327785 1.8438465-3.5787563 1.0715645-5.443375s-2.5883585-3.0834505-4.6065645-3.091625zm-25.673 30.677 2.673-6.248 3.568 3.568zm8-3.753-4.247-4.247 14.849-14.85 4.243 4.243zm19.8-19.8-3.541 3.533-4.243-4.243 3.536-3.537c1.1870572-1.1329556 3.0549428-1.1329556 4.242 0 .563025.5626643.8793595 1.3260174.8793595 2.122s-.3163345 1.5593357-.8793595 2.122z"/></g></g></svg>