<svg width="84" height="84" viewBox="0 0 84 84" fill="none" xmlns="http://www.w3.org/2000/svg">
<path d="M42 84C33.6932 84 25.5729 81.5368 18.6661 76.9218C11.7592 72.3067 6.37594 65.7472 3.19706 58.0727C0.018178 50.3982 -0.813535 41.9534 0.807044 33.8062C2.42762 25.659 6.42768 18.1753 12.3015 12.3015C18.1753 6.42774 25.659 2.42762 33.8062 0.807036C41.9534 -0.813543 50.3982 0.0182006 58.0727 3.19708C65.7472 6.37596 72.3067 11.7592 76.9217 18.6661C81.5367 25.5729 84 33.6932 84 42C83.9874 53.1353 79.5583 63.8108 71.6845 71.6846C63.8108 79.5584 53.1352 83.9874 42 84V84ZM42 2.00003C34.0887 2.00003 26.3552 4.34598 19.7772 8.74124C13.1992 13.1365 8.07234 19.3836 5.04484 26.6927C2.01733 34.0017 1.22518 42.0444 2.76859 49.8036C4.312 57.5629 8.12163 64.6902 13.7157 70.2843C19.3098 75.8784 26.4371 79.688 34.1964 81.2314C41.9556 82.7748 49.9983 81.9827 57.3074 78.9552C64.6164 75.9277 70.8635 70.8008 75.2588 64.2228C79.654 57.6449 82 49.9113 82 42C81.988 31.395 77.7699 21.2278 70.271 13.729C62.7722 6.23011 52.605 2.012 42 2.00003V2.00003Z" fill="#3F3D56"/>
<path d="M60.67 18.9983L23.6069 19.0016C23.1304 18.9785 22.654 19.0498 22.2051 19.2113C21.7562 19.3728 21.3437 19.6214 20.9911 19.9428C20.6386 20.2642 20.353 20.6521 20.1508 21.0841C19.9485 21.5162 19.8336 21.984 19.8126 22.4606L19.816 59.6059C19.8417 60.6052 20.2495 61.5567 20.9554 62.2645C21.6613 62.9723 22.6117 63.3827 23.611 63.4111L60.6631 63.4077C61.6381 63.3694 62.5588 62.9485 63.2256 62.2361C63.8924 61.5237 64.2516 60.5773 64.2254 59.6019L64.2221 22.4566C64.2299 21.9923 64.1426 21.5313 63.9656 21.102C63.7886 20.6727 63.5256 20.2841 63.1929 19.9602C62.8602 19.6363 62.4648 19.3839 62.0309 19.2185C61.597 19.053 61.1339 18.9781 60.67 18.9983V18.9983ZM33.5815 56.0182L27.2195 56.0188L27.2178 36.2378L33.5798 36.2372L33.5815 56.0182ZM30.6185 33.2299H30.5729C29.6575 33.2238 28.7817 32.8552 28.1376 32.2046C27.4934 31.5541 27.1334 30.6747 27.1364 29.7592C27.1394 28.8437 27.5053 27.9667 28.1537 27.3204C28.8021 26.6742 29.6803 26.3113 30.5958 26.3113C31.5113 26.3113 32.3894 26.6742 33.0378 27.3204C33.6863 27.9667 34.052 28.8437 34.0551 29.7592C34.0581 30.6747 33.6981 31.5541 33.054 32.2046C32.4098 32.8552 31.534 33.2238 30.6185 33.2299V33.2299ZM56.8331 56.0161L50.4711 56.0167L50.4701 45.2008C50.4699 42.6096 49.5438 40.8392 47.2421 40.8394C46.5221 40.8452 45.8218 41.0742 45.2375 41.4949C44.6532 41.9156 44.2138 42.5072 43.98 43.1881C43.8106 43.6908 43.7361 44.2205 43.7601 44.7504L43.761 56.0173L37.399 56.0178L37.3973 36.2369L43.7593 36.2363L43.7596 38.9891C44.3388 37.987 45.1773 37.1596 46.1868 36.5936C47.1964 36.0277 48.3398 35.7441 49.4968 35.7728C53.6731 35.7725 56.8325 38.525 56.8331 44.4598V56.0161Z" fill="#3F3D56"/>
</svg>
