<svg id="Layer_1" enable-background="new 0 0 510 510" height="512" viewBox="0 0 510 510" width="512" xmlns="http://www.w3.org/2000/svg"><g id="XMLID_46_"><path id="XMLID_74_" d="m45 439.5c0 38.874 31.626 70.5 70.5 70.5h102l10-250-10-260h-172.5z" fill="#f2f4f9"/><path id="XMLID_50_" d="m390 135.001s0-132.186 0-135.001h-172.5v510h210z" fill="#dbf0f9"/><g id="XMLID_35_"><path id="XMLID_45_" d="m105 180h45v30h-45z" fill="#2ee66b"/></g><g id="XMLID_33_"><g><path id="XMLID_18_" d="m105 240h45v30h-45z" fill="#ff641a"/></g></g><g id="XMLID_31_"><path id="XMLID_41_" d="m105 300h82.5v30h-82.5z" fill="#c9745b"/></g><g id="XMLID_30_"><path id="XMLID_28_" d="m240 300h90v30h-90z" fill="#5a5a5a"/></g><g id="XMLID_14_"><path id="XMLID_6_" d="m240 360h90v30h-90z" fill="#5a5a5a"/></g><g id="XMLID_13_"><path id="XMLID_5_" d="m240 420h90v30h-90z" fill="#5a5a5a"/></g><path id="XMLID_2_" d="m105 360h82.5v90h-82.5z" fill="#78c4f8"/><path id="XMLID_37_" d="m390.081 135h-.081v337.5c0 20.711 16.789 37.5 37.5 37.5.55 0 1.095-.018 1.639-.042 19.949-.858 35.861-17.297 35.861-37.458v-337.5z" fill="#c3e2ed"/><g id="XMLID_34_"><path id="XMLID_44_" d="m217.5 210c-13.115 0-24.385 0-37.5 0 0-10.492 0-19.508 0-30h37.5l10 15z" fill="#78c4f8"/></g><g id="XMLID_32_"><path id="XMLID_42_" d="m217.5 270c-13.115 0-24.385 0-37.5 0 0-10.492 0-19.508 0-30h37.5l10 15z" fill="#78c4f8"/></g><g id="XMLID_71_"><path id="XMLID_77_" d="m217.5 180h112.5v30h-112.5z" fill="#249ec5"/></g><g id="XMLID_36_"><path id="XMLID_38_" d="m217.5 240h112.5v30h-112.5z" fill="#249ec5"/></g><path id="XMLID_75_" d="m105 75v75h112.5l11-37.5-11-37.5c-30.292 0-94.854 0-112.5 0z" fill="#78c4f8"/><path id="XMLID_72_" d="m217.5 75h112.5v75h-112.5z" fill="#249ec5"/></g></svg>