<svg id="_x31__x2C_5" enable-background="new 0 0 24 24" height="512" viewBox="0 0 24 24" width="512" xmlns="http://www.w3.org/2000/svg"><path d="m20.438 1.688h-16.875c-1.551 0-2.813 1.261-2.813 2.812v15c0 1.551 1.262 2.813 2.813 2.813h16.875c1.551 0 2.813-1.262 2.813-2.813v-15c-.001-1.551-1.263-2.812-2.813-2.812z" fill="#607d8b"/><path d="m22.129 22.25h-20.177c-.618 0-1.121-.514-1.121-1.146v-16.041h22.419v16.042c0 .631-.503 1.145-1.121 1.145z" fill="#fff"/><path d="m5.5 9.5h-1.75c-.414 0-.75-.336-.75-.75s.336-.75.75-.75h1.75c.414 0 .75.336.75.75s-.336.75-.75.75z"/><path d="m5.5 20h-1.75c-.414 0-.75-.336-.75-.75s.336-.75.75-.75h1.75c.414 0 .75.336.75.75s-.336.75-.75.75z"/><path d="m11.25 12h-6.5c-.414 0-.75-.336-.75-.75s.336-.75.75-.75h6.5c.414 0 .75.336.75.75s-.336.75-.75.75z"/><path d="m20.25 14.5h-14.5c-.414 0-.75-.336-.75-.75s.336-.75.75-.75h14.5c.414 0 .75.336.75.75s-.336.75-.75.75z"/><path d="m11.25 17.5h-6.5c-.414 0-.75-.336-.75-.75s.336-.75.75-.75h6.5c.414 0 .75.336.75.75s-.336.75-.75.75z"/><path d="m21.25 23h-18.5c-1.517 0-2.75-1.233-2.75-2.75v-16.5c0-1.517 1.233-2.75 2.75-2.75h18.5c1.517 0 2.75 1.233 2.75 2.75v16.5c0 1.517-1.233 2.75-2.75 2.75zm-18.5-20.5c-.689 0-1.25.561-1.25 1.25v16.5c0 .689.561 1.25 1.25 1.25h18.5c.689 0 1.25-.561 1.25-1.25v-16.5c0-.689-.561-1.25-1.25-1.25z"/><path d="m23.25 6h-22.5c-.414 0-.75-.336-.75-.75s.336-.75.75-.75h22.5c.414 0 .75.336.75.75s-.336.75-.75.75z"/></svg>