<svg width="84" height="84" viewBox="0 0 84 84" fill="none" xmlns="http://www.w3.org/2000/svg">
<path d="M42 84C33.6932 84 25.5729 81.5368 18.6661 76.9218C11.7592 72.3067 6.37594 65.7472 3.19706 58.0727C0.018178 50.3982 -0.813535 41.9534 0.807044 33.8062C2.42762 25.659 6.42768 18.1753 12.3015 12.3015C18.1753 6.42772 25.659 2.42762 33.8062 0.807036C41.9534 -0.813543 50.3982 0.0182006 58.0727 3.19708C65.7472 6.37596 72.3067 11.7592 76.9217 18.6661C81.5367 25.5729 84 33.6932 84 42C83.9874 53.1353 79.5583 63.8108 71.6845 71.6846C63.8108 79.5584 53.1352 83.9874 42 84V84ZM42 2.00001C34.0887 2.00001 26.3552 4.34597 19.7772 8.74123C13.1992 13.1365 8.07234 19.3836 5.04484 26.6927C2.01733 34.0017 1.22518 42.0444 2.76859 49.8036C4.312 57.5629 8.12163 64.6902 13.7157 70.2843C19.3098 75.8784 26.4371 79.688 34.1964 81.2314C41.9556 82.7748 49.9983 81.9827 57.3074 78.9552C64.6164 75.9277 70.8635 70.8008 75.2588 64.2228C79.654 57.6449 82 49.9113 82 42C81.988 31.395 77.7699 21.2278 70.271 13.729C62.7722 6.23013 52.605 2.012 42 2.00001V2.00001Z" fill="#3F3D56"/>
<path d="M66 30.4977L71 29.4977C71 29.4977 66.8 34.1977 66 34.4977C65.9253 35.4963 65.9253 36.4991 66 37.4977C56.4 78.6977 21 60.4977 21 60.4977C33.9 60.7977 35 55.4977 35 55.4977C27.5 54.3977 26 49.4977 26 49.4977C26.6729 49.8527 27.4531 49.947 28.1912 49.7624C28.9293 49.5779 29.5733 49.1276 30 48.4977C21.9 46.3977 23 38.4977 23 38.4977C24.4437 39.5401 26.131 40.1943 27.9 40.3978C27 39.2978 19.4 30.1977 24 25.4977C24 25.4977 29.6 35.4978 44.3 36.3978L45.3 36.1977C45.13 35.4775 45.0627 34.7368 45.1 33.9977C45.1 31.213 46.2063 28.5422 48.1754 26.5731C50.1445 24.604 52.8153 23.4977 55.6 23.4977C62.6 23.4977 64.1 27.4977 64.1 27.4977L69.1 24.4977C69 24.4977 68.5 29.4977 66 30.4977Z" fill="#3F3D56"/>
</svg>
