<svg height="480pt" viewBox="0 0 480 480" width="480pt" xmlns="http://www.w3.org/2000/svg"><path d="m352 480v-217.371094c0-4.246094-1.6875-8.316406-4.6875-11.316406l-86.625-86.625c-3-3-7.070312-4.6875-11.316406-4.6875h-249.371094v320zm0 0" fill="#efefef"/><path d="m347.3125 251.3125-86.625-86.625c-1.359375-1.339844-2.945312-2.421875-4.6875-3.199219v78.511719c0 8.835938 7.164062 16 16 16h78.511719c-.777344-1.742188-1.859375-3.328125-3.199219-4.6875zm0 0" fill="#d6d6d6"/><path d="m40 360h32c8.835938 0 16 7.164062 16 16v32c0 8.835938-7.164062 16-16 16h-32c-8.835938 0-16-7.164062-16-16v-32c0-8.835938 7.164062-16 16-16zm0 0" fill="#82e28c"/><path d="m288 296h16c4.417969 0 8 3.582031 8 8v16c0 4.417969-3.582031 8-8 8h-16c-4.417969 0-8-3.582031-8-8v-16c0-4.417969 3.582031-8 8-8zm0 0" fill="#75c1ff"/><path d="m32 224h48c4.417969 0 8 3.582031 8 8v16c0 4.417969-3.582031 8-8 8h-48c-4.417969 0-8-3.582031-8-8v-16c0-4.417969 3.582031-8 8-8zm0 0" fill="#ffd04a"/><path d="m160 224h24c4.417969 0 8 3.582031 8 8v16c0 4.417969-3.582031 8-8 8h-24c-4.417969 0-8-3.582031-8-8v-16c0-4.417969 3.582031-8 8-8zm0 0" fill="#ff675b"/><path d="m328 128h-32v-32h32c4.417969 0 8 3.582031 8 8v16c0 4.417969-3.582031 8-8 8zm0 0" fill="#d6d6d6"/><path d="m0 96h296v32h-296zm0 0" fill="#a3a3a3"/><path d="m472 128h-96v-32c0-4.417969 3.582031-8 8-8h80c4.417969 0 8 3.582031 8 8zm0 0" fill="#d6d6d6"/><path d="m424 272c-26.507812 0-48-21.492188-48-48v-96h96v96c0 26.507812-21.492188 48-48 48zm0 0" fill="#ffd04a"/><path d="m424 32c17.671875 0 32 14.328125 32 32v24h-64v-24c0-17.671875 14.328125-32 32-32zm0 0" fill="#a3a3a3"/><path d="m464 80v-16c-.027344-19-13.390625-35.367188-32-39.191406v-.808594c-.015625-13.25-10.75-23.984375-24-24h-80c-13.25.015625-23.984375 10.75-24 24v64h-304v16h288v16h-288v16h328c8.832031-.011719 15.988281-7.167969 16-16h24v104c0 30.929688 25.070312 56 56 56s56-25.070312 56-56v-128c-.011719-8.832031-7.167969-15.988281-16-16zm-16-16v16h-48v-16c0-13.253906 10.746094-24 24-24s24 10.746094 24 24zm-120 56h-24v-16h24zm16-16c-.011719-8.832031-7.167969-15.988281-16-16h-8v-64c.003906-4.417969 3.582031-7.996094 8-8h80c4.417969.003906 7.996094 3.582031 8 8v.808594c-18.609375 3.824218-31.972656 20.191406-32 39.191406v16c-8.832031.011719-15.988281 7.167969-16 16v8zm120 120c0 22.089844-17.910156 40-40 40s-40-17.910156-40-40v-88h80zm-80-104-.015625-24h80.015625v24zm0 0"/><path d="m432 216h16v16h-16zm0 0"/><path d="m400 216h16v16h-16zm0 0"/><path d="m432 184h16v16h-16zm0 0"/><path d="m400 184h16v16h-16zm0 0"/><path d="m432 152h16v16h-16zm0 0"/><path d="m400 152h16v16h-16zm0 0"/><path d="m266.34375 159.03125c-4.492188-4.515625-10.601562-7.046875-16.96875-7.03125h-249.375v16h248v72c.015625 13.25 10.75 23.984375 24 24h72v216h16v-217.375c.015625-6.367188-2.515625-12.476562-7.03125-16.96875zm-2.34375 80.96875v-60.6875l68.6875 68.6875h-60.6875c-4.417969-.003906-7.996094-3.582031-8-8zm0 0"/><path d="m96 408v-32c-.015625-13.25-10.75-23.984375-24-24h-32c-13.25.015625-23.984375 10.75-24 24v32c.015625 13.25 10.75 23.984375 24 24h32c13.25-.015625 23.984375-10.75 24-24zm-64 0v-32c.003906-4.417969 3.582031-7.996094 8-8h32c4.417969.003906 7.996094 3.582031 8 8v32c-.003906 4.417969-3.582031 7.996094-8 8h-32c-4.417969-.003906-7.996094-3.582031-8-8zm0 0"/><path d="m304 288h-16c-8.832031.011719-15.988281 7.167969-16 16v16c.011719 8.832031 7.167969 15.988281 16 16h16c8.832031-.011719 15.988281-7.167969 16-16v-16c-.011719-8.832031-7.167969-15.988281-16-16zm0 32h-16v-16h16zm0 0"/><path d="m112 416h16v16h-16zm0 0"/><path d="m144 416h144v16h-144zm0 0"/><path d="m304 416h16v16h-16zm0 0"/><path d="m112 384h16v16h-16zm0 0"/><path d="m144 384h144v16h-144zm0 0"/><path d="m304 384h16v16h-16zm0 0"/><path d="m112 352h16v16h-16zm0 0"/><path d="m144 352h144v16h-144zm0 0"/><path d="m304 352h16v16h-16zm0 0"/><path d="m16 320h16v16h-16zm0 0"/><path d="m48 320h176v16h-176zm0 0"/><path d="m240 320h16v16h-16zm0 0"/><path d="m16 288h16v16h-16zm0 0"/><path d="m48 288h176v16h-176zm0 0"/><path d="m240 288h16v16h-16zm0 0"/><path d="m24 448h16v16h-16zm0 0"/><path d="m56 448h232v16h-232zm0 0"/><path d="m304 448h16v16h-16zm0 0"/><path d="m80 216h-48c-8.832031.011719-15.988281 7.167969-16 16v16c.011719 8.832031 7.167969 15.988281 16 16h48c8.832031-.011719 15.988281-7.167969 16-16v-16c-.011719-8.832031-7.167969-15.988281-16-16zm-48 32v-16h48l.015625 16zm0 0"/><path d="m184 264c8.832031-.011719 15.988281-7.167969 16-16v-16c-.011719-8.832031-7.167969-15.988281-16-16h-24c-8.832031.011719-15.988281 7.167969-16 16v16c.011719 8.832031 7.167969 15.988281 16 16zm-24-32h24l.015625 16h-24.015625zm0 0"/><path d="m112 216h16v48h-16zm0 0"/></svg>