<svg width="24" height="24" viewBox="0 0 24 24" fill="none" xmlns="http://www.w3.org/2000/svg">
<path d="M22.4616 4.30764H1.53848C0.688594 4.30764 0 3.61904 0 2.7692C0 1.91935 0.688594 1.23071 1.53848 1.23071H22.4616C23.3114 1.23071 24 1.91931 24 2.7692C24 3.61909 23.3114 4.30764 22.4616 4.30764Z" fill="#3F3D56"/>
<path d="M13.8462 13.5385H1.53848C0.688594 13.5385 0 12.8498 0 12C0 11.1501 0.688594 10.4615 1.53848 10.4615H13.8462C14.696 10.4615 15.3847 11.1501 15.3847 12C15.3847 12.8499 14.696 13.5385 13.8462 13.5385Z" fill="#3F3D56"/>
<path d="M22.461 13.5385H19.9994C19.1496 13.5385 18.4609 12.8499 18.4609 12C18.4609 11.1501 19.1495 10.4615 19.9994 10.4615H22.461C23.3108 10.4615 23.9994 11.1501 23.9994 12C23.9994 12.8499 23.3108 13.5385 22.461 13.5385Z" fill="#3F3D56" fill-opacity="0.5"/>
<path d="M22.4616 22.7692H1.53848C0.688594 22.7692 0 22.0806 0 21.2307C0 20.3809 0.688594 19.6923 1.53848 19.6923H22.4616C23.3114 19.6923 24 20.3809 24 21.2307C24 22.0806 23.3114 22.7692 22.4616 22.7692Z" fill="#3F3D56"/>
</svg>
